<svg width="63" height="77" viewBox="0 0 63 77" fill="none" xmlns="http://www.w3.org/2000/svg">
<path d="M53.7984 29.779C56.7193 31.5424 56.865 35.5234 54.1139 38.6761L33.79 62.0117C31.0556 65.1548 26.4761 66.2727 23.5552 64.5092C20.6343 62.7458 20.5059 58.7566 23.2398 55.6121L43.5635 32.2767C46.2979 29.1336 50.8947 28.0074 53.7984 29.779Z" fill="#D92F84"/>
<path d="M2.32402 2.18316C4.52089 0.850912 7.36137 1.49143 8.66895 3.62037L18.3599 19.3561C19.6662 21.4739 18.9455 24.2677 16.7486 25.6C14.5517 26.9322 11.7111 26.2805 10.4037 24.1628L0.712719 8.42714C-0.593565 6.30936 0.126997 3.50421 2.32402 2.18316Z" fill="#99DDE3"/>
</svg>
