<svg width="123" height="114" viewBox="0 0 123 114" fill="none" xmlns="http://www.w3.org/2000/svg">
<g clip-path="url(#clip0_245_17)">
<g filter="url(#filter0_d_245_17)">
<path d="M71.927 97.532C73.0534 99.748 75.2699 100.769 78.145 100.783C79.1992 100.783 80.2282 100.747 81.2515 100.666C87.3498 100.175 93.4644 97.678 98.3134 93.666C98.3324 93.652 98.3515 93.639 98.3704 93.625C99.2497 92.892 100.15 91.834 100.382 90.887C101.383 86.685 104.858 84.896 108.747 83.441C109.774 83.057 110.841 82.828 111.82 82.395C116.049 80.521 117.961 77.485 117.017 73.759C116.587 72.146 115.828 70.553 114.797 69.258C112.764 66.737 109.537 66.721 106.128 67.886C104.166 68.558 103.074 68.255 102.314 66.817C101.719 65.705 102.268 66.613 101.634 65.524C100.838 64.124 101.427 62.2343 102.975 61.0619C105.786 58.9279 106.857 56.5943 105.876 53.7334C104.778 50.5865 102.7 48.5299 98.6175 48.6162C97.5867 48.638 94.9605 48.4662 93.9014 48.592C90.7647 48.9632 92.6896 51.2819 92.846 48.4184C92.9645 46.0749 92.8345 43.7288 92.5079 41.4628C92.0584 38.5486 90.1445 36.4808 87.5405 35.0069C86.6053 34.475 86.0724 33.527 86.0628 32.4646C86.0042 29.2073 84.0032 27.2686 80.676 27.1123C76.7463 26.9314 73.0559 28.8147 71.543 31.905C71.0171 32.9823 70.295 33.4867 69.1386 33.9886C67.4727 34.7132 65.8609 35.7034 64.3615 36.7652C63.4706 37.4059 62.8151 37.7809 61.9233 37.2654C58.888 35.4861 54.1714 36.7732 51.7653 41.3069C50.1112 44.4242 49.6486 47.3171 52.607 49.4711C53.1521 49.8604 53.5482 50.7085 53.4866 51.3691C52.7352 57.7169 55.927 62.0535 60.7132 65.426C62.3685 66.589 61.2311 64.122 60.7378 66.279C59.6037 71.229 60.5073 75.781 63.6437 79.349C66.7988 82.901 67.0857 85.181 68.4684 89.597C69.3522 92.348 70.6116 94.965 71.927 97.532Z" fill="#91D7E1"/>
</g>
<path d="M20.4914 16.6277C21.6196 22.2162 17.8411 27.9196 12.4282 28.8254C7.55526 29.6404 3.05886 26.6451 2.07344 21.9387C0.94867 16.5489 4.80674 11.3839 10.8018 10.2712C15.9574 9.31501 19.4812 11.6276 20.4914 16.6277Z" fill="#FEE927"/>
</g>
<defs>
<filter id="filter0_d_245_17" x="20.4535" y="7.10034" width="186.8" height="193.683" filterUnits="userSpaceOnUse" color-interpolation-filters="sRGB">
<feFlood flood-opacity="0" result="BackgroundImageFix"/>
<feColorMatrix in="SourceAlpha" type="matrix" values="0 0 0 0 0 0 0 0 0 0 0 0 0 0 0 0 0 0 127 0" result="hardAlpha"/>
<feOffset dx="30" dy="40"/>
<feGaussianBlur stdDeviation="30"/>
<feComposite in2="hardAlpha" operator="out"/>
<feColorMatrix type="matrix" values="0 0 0 0 0.882353 0 0 0 0 0.784314 0 0 0 0 0.827451 0 0 0 0.3 0"/>
<feBlend mode="normal" in2="BackgroundImageFix" result="effect1_dropShadow_245_17"/>
<feBlend mode="normal" in="SourceGraphic" in2="effect1_dropShadow_245_17" result="shape"/>
</filter>
<clipPath id="clip0_245_17">
<rect width="123" height="114" fill="white"/>
</clipPath>
</defs>
</svg>
