<svg width="63" height="67" viewBox="0 0 63 67" fill="none" xmlns="http://www.w3.org/2000/svg">
<path d="M53.798 28.7947C56.7188 30.5581 56.8645 34.5391 54.1134 37.6919L33.7895 61.0274C31.0551 64.1705 26.4756 65.2884 23.5547 63.525C20.6339 61.7615 20.5054 57.7723 23.2393 54.6278L43.563 31.2924C46.2974 28.1493 50.8942 27.0231 53.798 28.7947Z" fill="white"/>
<path d="M2.3228 1.19869C4.51967 -0.133555 7.36015 0.506966 8.66773 2.6359L18.3587 18.3716C19.665 20.4894 18.9443 23.2833 16.7474 24.6155C14.5505 25.9478 11.7099 25.296 10.4024 23.1783L0.711498 7.44267C-0.594786 5.3249 0.125776 2.51974 2.3228 1.19869Z" fill="#FEE927"/>
</svg>
