<svg width="82" height="91" viewBox="0 0 82 91" fill="none" xmlns="http://www.w3.org/2000/svg">
<path d="M60.178 45.194C63.982 45.9273 66.4358 49.6111 65.6524 53.4302L59.8914 81.6857C59.1183 85.4905 55.4123 87.9783 51.6083 87.245C47.8044 86.5117 45.3621 82.8147 46.1339 79.0087L51.8948 50.7534C52.6679 46.9486 56.3856 44.4475 60.178 45.194Z" fill="white"/>
<path d="M3.2835 41.4926C4.5883 39.378 7.3777 38.8022 9.51734 40.2124L25.3552 50.6245C27.4885 52.025 28.1598 54.8713 26.855 56.9859C25.5502 59.1005 22.7554 59.666 20.6211 58.2661L4.7834 47.854C2.6501 46.4535 1.97334 43.597 3.2835 41.4926Z" fill="#D92F84"/>
<path d="M44.5461 8.43785C48.2034 12.9857 47.367 19.8179 42.7105 23.453C38.3068 26.8916 32.1115 26.7407 29.1583 23.1322C25.5209 18.6728 26.0132 9.98723 30.0979 6.5348C34.2337 3.03955 40.9114 3.91801 44.5461 8.43785Z" fill="#BEF7FF"/>
</svg>
