<svg width="227" height="227" viewBox="0 0 227 227" fill="none" xmlns="http://www.w3.org/2000/svg">
<path d="M224.375 113.228C224.375 174.613 174.613 224.375 113.228 224.375C51.843 224.375 2.08099 174.613 2.08099 113.228C2.08099 51.843 51.843 2.08099 113.228 2.08099C174.613 2.08099 224.375 51.843 224.375 113.228Z" fill="#FFF5FA"/>
<path d="M166.136 206.445C165.75 206.674 165.394 206.53 165.193 206.191C164.955 205.79 163.918 203.653 162.619 201.462C161.623 199.781 162.173 197.578 163.839 196.59C165.52 195.594 167.701 196.177 168.698 197.859C169.996 200.05 171.373 201.985 171.611 202.387C171.812 202.726 171.767 203.107 171.381 203.336L170.086 204.104C169.7 204.333 169.344 204.189 169.143 203.85C168.905 203.449 168.728 203.116 167.712 201.049C167.402 200.42 165.526 196.904 164.415 197.562C163.304 198.221 165.489 201.554 165.892 202.129C167.216 204.012 167.424 204.327 167.662 204.728C167.863 205.067 167.818 205.448 167.432 205.677L166.136 206.445Z" fill="#D92F84"/>
<path d="M156.739 207.529C156.234 206.498 156.302 205.247 156.848 204.322C155.414 203.146 154.648 202.682 154.314 202.406C153.996 202.123 153.942 201.809 154.329 201.62L155.65 200.975C156.053 200.778 156.509 200.894 156.828 201.178C157.098 201.405 157.639 201.979 158.649 202.902L159.326 202.572L158.294 200.461C158.12 200.106 158.196 199.73 158.583 199.541L159.759 198.966C160.162 198.769 160.489 198.949 160.662 199.303C160.859 199.706 161.305 201.025 162.313 203.088C163.313 205.134 164.081 206.296 164.285 206.715C164.459 207.069 164.399 207.437 163.996 207.634L160.887 209.155C159.388 209.887 157.503 209.092 156.739 207.529ZM161.728 207.486L159.822 203.587C158.92 204.028 158.579 205.292 159.099 206.355C159.595 207.37 160.818 207.911 161.728 207.486Z" fill="#D92F84"/>
<path d="M149.73 212.622C150.489 212.018 148.97 211.139 147.553 210.776C145.75 210.337 144.343 209.838 143.886 208.516C143.34 206.94 144.291 205.301 146.506 204.628C147.784 204.262 149.535 204.168 149.97 205.422C150.427 206.744 149.471 207.929 148.27 207.529C147.433 207.249 146.116 205.694 145.623 206.244C145.147 206.788 146.833 207.818 148.191 208.069C150.016 208.405 151.225 209.049 151.654 210.286C152.206 211.879 151.219 213.416 149.033 214.173C147.542 214.689 146.004 214.634 145.576 213.396C145.329 212.685 145.462 211.424 146.327 211.125C147.53 210.708 148.988 213.221 149.73 212.622Z" fill="#D92F84"/>
<path d="M137.778 217.32C136.056 217.754 135.67 214.245 136.887 213.938C138.07 213.639 138.336 216.014 139.275 215.777C139.275 215.777 139.001 213.885 138.562 212.146C138.001 209.921 137.471 208.63 137.362 208.195C137.265 207.813 137.417 207.46 137.834 207.355L139.103 207.034C139.538 206.925 139.821 207.168 139.918 207.55C140.028 207.985 140.192 209.368 140.753 211.594C141.192 213.332 141.831 215.132 141.831 215.132C142.788 214.89 141.895 212.674 143.06 212.38C144.278 212.073 145.62 215.341 143.881 215.78L137.778 217.32Z" fill="#D92F84"/>
<path d="M131.098 218.683C128.511 219.086 126.822 217.679 126.317 214.436C125.812 211.193 126.993 209.339 129.581 208.936C132.168 208.534 133.857 209.94 134.362 213.183C134.867 216.426 133.685 218.28 131.098 218.683ZM129.71 209.769C129.001 209.88 128.821 211.287 129.241 213.981C129.66 216.674 130.26 217.96 130.968 217.85C131.66 217.742 131.84 216.335 131.42 213.641C131.001 210.948 130.401 209.662 129.71 209.769Z" fill="#D92F84"/>
<path d="M118.471 216.584C118.391 215.439 118.923 214.305 119.776 213.652C118.889 212.025 118.353 211.307 118.147 210.926C117.958 210.544 118.026 210.233 118.456 210.203L119.923 210.1C120.37 210.069 120.749 210.348 120.938 210.73C121.103 211.042 121.388 211.778 121.978 213.013L122.73 212.96L122.566 210.616C122.538 210.223 122.749 209.902 123.179 209.872L124.485 209.781C124.932 209.75 125.168 210.039 125.195 210.432C125.227 210.879 125.144 212.27 125.305 214.56C125.464 216.832 125.739 218.197 125.772 218.662C125.799 219.055 125.606 219.375 125.159 219.406L121.706 219.648C120.042 219.764 118.593 218.32 118.471 216.584ZM123.112 218.417L122.809 214.087C121.807 214.157 121.017 215.201 121.1 216.382C121.179 217.509 122.109 218.469 123.112 218.417Z" fill="#D92F84"/>
<path d="M110.145 219.869C109.392 219.861 109.362 219.269 109.528 218.894C109.73 218.43 111.893 213.897 112.096 213.379C112.151 213.272 112.188 213.165 112.225 213.057C112.183 211.945 112.1 211.245 112.103 210.94C112.108 210.545 112.344 210.243 112.774 210.247L114.101 210.261C114.532 210.266 114.744 210.573 114.74 210.967C114.736 211.272 114.657 211.971 114.592 213.082L114.696 213.406C114.888 213.928 116.975 218.505 117.167 218.974C117.325 219.352 117.265 219.943 116.53 219.936L115.256 219.922C114.826 219.918 114.47 219.609 114.313 219.213C114.156 218.835 113.979 215.084 113.388 215.078C112.814 215.072 112.542 218.818 112.376 219.193C112.211 219.586 111.849 219.887 111.418 219.882L110.145 219.869Z" fill="#D92F84"/>
<path d="M103.07 215.638C103.002 216.172 102.864 216.588 102.657 216.887C102.437 217.197 102.17 217.404 101.855 217.508C101.528 217.611 101.181 217.639 100.814 217.593C100.446 217.546 100.123 217.432 99.845 217.252C99.566 217.072 99.359 216.804 99.224 216.45C99.087 216.107 99.052 215.669 99.12 215.135C99.187 214.613 99.33 214.197 99.55 213.888C99.769 213.59 100.036 213.383 100.353 213.267C100.667 213.162 101.008 213.134 101.376 213.181C101.744 213.227 102.073 213.342 102.363 213.523C102.64 213.715 102.847 213.983 102.984 214.326C103.107 214.679 103.136 215.116 103.07 215.638Z" fill="#D92F84"/>
<path d="M88.33 216.828C85.791 216.188 84.785 214.233 85.587 211.051C86.389 207.868 88.201 206.623 90.74 207.263C93.279 207.903 94.284 209.858 93.483 213.04C92.681 216.223 90.869 217.468 88.33 216.828ZM90.534 208.08C89.838 207.905 89.123 209.13 88.457 211.774C87.791 214.417 87.84 215.835 88.536 216.011C89.214 216.181 89.93 214.956 90.596 212.313C91.262 209.669 91.212 208.251 90.534 208.08Z" fill="#D92F84"/>
<path d="M76.798 213.176C76.374 213.03 76.253 212.666 76.381 212.293C76.532 211.852 77.488 209.677 78.315 207.269C78.951 205.42 80.985 204.412 82.816 205.041C84.665 205.676 85.633 207.715 84.998 209.564C84.171 211.973 83.588 214.276 83.437 214.717C83.309 215.09 82.989 215.302 82.565 215.157L81.14 214.667C80.716 214.522 80.595 214.158 80.723 213.784C80.875 213.343 81.014 212.993 81.929 210.88C82.207 210.236 83.671 206.529 82.449 206.11C81.228 205.69 80.104 209.514 79.928 210.193C79.352 212.422 79.246 212.784 79.095 213.225C78.967 213.598 78.647 213.811 78.223 213.665L76.798 213.176Z" fill="#D92F84"/>
<path d="M69.829 206.68C70.289 205.628 71.285 204.869 72.344 204.686C72.312 202.832 72.17 201.948 72.164 201.515C72.174 201.089 72.378 200.845 72.772 201.017L74.12 201.606C74.531 201.786 74.737 202.209 74.727 202.635C74.73 202.988 74.642 203.772 74.592 205.139L75.283 205.441L76.223 203.288C76.381 202.926 76.717 202.74 77.111 202.913L78.311 203.437C78.722 203.616 78.797 203.982 78.639 204.343C78.459 204.754 77.742 205.948 76.823 208.052C75.912 210.139 75.523 211.476 75.337 211.903C75.179 212.265 74.859 212.458 74.448 212.279L71.277 210.893C69.748 210.226 69.133 208.274 69.829 206.68ZM73.093 210.454L74.83 206.476C73.91 206.074 72.726 206.634 72.252 207.718C71.8 208.754 72.18 210.035 73.093 210.454Z" fill="#D92F84"/>
<path d="M61.355 204.584C62.307 204.772 61.995 203.046 61.357 201.73C60.526 200.071 59.998 198.674 60.711 197.471C61.561 196.036 63.426 195.702 65.371 196.958C66.476 197.695 67.68 198.971 67.004 200.113C66.291 201.317 64.769 201.353 64.298 200.178C63.97 199.359 64.306 197.348 63.567 197.328C62.845 197.317 63.148 199.268 63.835 200.467C64.758 202.076 65.049 203.415 64.382 204.542C63.523 205.993 61.712 206.234 59.722 205.055C58.364 204.251 57.412 203.042 58.079 201.915C58.463 201.267 59.511 200.553 60.298 201.019C61.394 201.668 60.419 204.405 61.355 204.584Z" fill="#D92F84"/>
<path d="M50.124 198.562C48.676 197.534 51.096 194.963 52.119 195.69C53.114 196.396 51.48 198.139 52.27 198.7C52.27 198.7 53.531 197.264 54.569 195.802C55.898 193.93 56.537 192.69 56.796 192.324C57.025 192.002 57.392 191.889 57.742 192.138L58.81 192.896C59.176 193.155 59.175 193.529 58.946 193.85C58.687 194.216 57.741 195.238 56.412 197.11C55.374 198.572 54.419 200.226 54.419 200.226C55.224 200.797 56.331 198.68 57.311 199.376C58.334 200.102 56.719 203.245 55.257 202.207L50.124 198.562Z" fill="#D92F84"/>
<path d="M44.776 194.345C42.794 192.634 42.774 190.435 44.919 187.952C47.064 185.468 49.242 185.169 51.224 186.88C53.205 188.592 53.226 190.79 51.081 193.274C48.935 195.758 46.757 196.057 44.776 194.345ZM50.673 187.518C50.13 187.049 48.94 187.823 47.158 189.886C45.376 191.949 44.784 193.238 45.327 193.707C45.856 194.164 47.046 193.391 48.828 191.328C50.61 189.265 51.202 187.975 50.673 187.518Z" fill="#D92F84"/>
<path d="M38.21 183.356C39.031 182.553 40.24 182.225 41.29 182.452C41.956 180.722 42.156 179.849 42.313 179.445C42.482 179.054 42.763 178.905 43.064 179.213L44.092 180.265C44.405 180.585 44.438 181.055 44.269 181.446C44.138 181.774 43.763 182.468 43.203 183.717L43.73 184.255L45.41 182.613C45.692 182.337 46.073 182.291 46.374 182.599L47.289 183.535C47.602 183.856 47.535 184.223 47.253 184.498C46.932 184.812 45.819 185.649 44.178 187.254C42.549 188.846 41.687 189.939 41.353 190.265C41.071 190.541 40.703 190.6 40.389 190.28L37.97 187.804C36.804 186.612 36.966 184.572 38.21 183.356ZM39.818 188.079L42.922 185.045C42.22 184.327 40.913 184.401 40.066 185.228C39.258 186.018 39.129 187.348 39.818 188.079Z" fill="#D92F84"/>
<path d="M30.318 179.119C29.837 178.54 30.269 178.134 30.662 178.018C31.147 177.872 36.003 176.589 36.529 176.408C36.647 176.381 36.752 176.34 36.858 176.299C37.679 175.547 38.16 175.031 38.394 174.836C38.698 174.584 39.081 174.569 39.356 174.9L40.204 175.921C40.479 176.252 40.382 176.612 40.079 176.864C39.844 177.059 39.26 177.451 38.371 178.12L38.191 178.409C37.917 178.893 35.776 183.445 35.544 183.895C35.357 184.26 34.868 184.596 34.398 184.031L33.584 183.051C33.309 182.72 33.314 182.249 33.515 181.873C33.701 181.508 36.447 178.948 36.069 178.493C35.702 178.051 32.67 180.267 32.277 180.383C31.871 180.511 31.407 180.43 31.132 180.099L30.318 179.119Z" fill="#D92F84"/>
<path d="M28.733 170.642C28.281 170.934 27.874 171.098 27.512 171.132C27.134 171.163 26.803 171.092 26.52 170.919C26.231 170.736 25.986 170.488 25.785 170.177C25.584 169.866 25.462 169.545 25.421 169.216C25.379 168.888 25.45 168.557 25.634 168.225C25.808 167.899 26.121 167.59 26.573 167.298C27.015 167.013 27.425 166.854 27.803 166.823C28.172 166.799 28.502 166.87 28.795 167.037C29.078 167.21 29.32 167.452 29.521 167.763C29.722 168.075 29.847 168.4 29.895 168.739C29.926 169.074 29.855 169.405 29.681 169.731C29.491 170.053 29.175 170.357 28.733 170.642Z" fill="#D92F84"/>
<path d="M18.335 160.144C17.185 157.792 18.029 155.762 20.978 154.321C23.926 152.879 26.047 153.46 27.197 155.812C28.347 158.165 27.502 160.194 24.554 161.636C21.605 163.077 19.485 162.497 18.335 160.144ZM26.439 156.182C26.124 155.538 24.727 155.782 22.278 156.979C19.829 158.177 18.777 159.13 19.092 159.774C19.399 160.402 20.797 160.158 23.246 158.961C25.695 157.764 26.747 156.811 26.439 156.182Z" fill="#D92F84"/>
<path d="M13.708 148.955C13.547 148.537 13.748 148.21 14.116 148.068C14.551 147.901 16.831 147.235 19.208 146.32C21.033 145.618 23.112 146.528 23.808 148.336C24.51 150.16 23.57 152.213 21.746 152.915C19.369 153.829 17.23 154.864 16.795 155.031C16.427 155.173 16.059 155.065 15.898 154.646L15.357 153.24C15.196 152.822 15.396 152.495 15.765 152.353C16.2 152.186 16.558 152.067 18.765 151.41C19.437 151.209 23.217 149.947 22.753 148.742C22.29 147.536 18.638 149.134 18.005 149.435C15.927 150.427 15.582 150.579 15.146 150.746C14.778 150.888 14.41 150.78 14.249 150.361L13.708 148.955Z" fill="#D92F84"/>
<path d="M14.21 139.441C15.312 139.119 16.533 139.397 17.353 140.092C18.754 138.878 19.341 138.202 19.67 137.919C20.003 137.653 20.321 137.654 20.442 138.067L20.854 139.478C20.98 139.909 20.788 140.339 20.455 140.604C20.185 140.833 19.528 141.268 18.447 142.107L18.658 142.83L20.913 142.171C21.292 142.06 21.65 142.198 21.771 142.611L22.138 143.868C22.264 144.298 22.032 144.59 21.653 144.701C21.223 144.827 19.847 145.042 17.644 145.687C15.458 146.326 14.183 146.886 13.735 147.017C13.356 147.128 13.003 147.007 12.878 146.576L11.906 143.254C11.438 141.653 12.54 139.929 14.21 139.441ZM13.408 144.366L17.574 143.147C17.292 142.183 16.103 141.634 14.967 141.966C13.883 142.284 13.143 143.397 13.408 144.366Z" fill="#D92F84"/>
<path d="M10.379 131.666C10.848 132.515 11.968 131.165 12.563 129.829C13.297 128.124 14.024 126.821 15.404 126.59C17.049 126.315 18.506 127.527 18.799 129.823C18.947 131.144 18.747 132.887 17.438 133.105C16.058 133.336 15.05 132.195 15.645 131.078C16.06 130.299 17.814 129.261 17.354 128.683C16.897 128.123 15.6 129.612 15.126 130.91C14.49 132.653 13.653 133.738 12.361 133.954C10.699 134.231 9.348 133.003 8.966 130.721C8.706 129.164 9.018 127.657 10.31 127.441C11.053 127.317 12.273 127.659 12.424 128.561C12.634 129.817 9.913 130.835 10.379 131.666Z" fill="#D92F84"/>
<path d="M7.76501 119.194C7.62101 117.424 11.146 117.624 11.247 118.876C11.346 120.091 8.96001 119.961 9.03901 120.926C9.03901 120.926 10.949 120.969 12.737 120.824C15.025 120.638 16.386 120.33 16.832 120.294C17.226 120.262 17.548 120.47 17.583 120.899L17.689 122.204C17.725 122.651 17.439 122.89 17.046 122.922C16.599 122.958 15.208 122.891 12.92 123.076C11.132 123.221 9.25201 123.554 9.25201 123.554C9.33201 124.537 11.665 124.024 11.762 125.221C11.864 126.473 8.41801 127.256 8.27301 125.468L7.76501 119.194Z" fill="#D92F84"/>
<path d="M7.544 112.442C7.571 109.823 9.236 108.388 12.518 108.422C15.8 108.456 17.434 109.926 17.407 112.544C17.38 115.163 15.715 116.598 12.433 116.564C9.151 116.53 7.517 115.06 7.544 112.442ZM16.564 112.536C16.572 111.818 15.213 111.41 12.487 111.381C9.761 111.353 8.394 111.733 8.387 112.451C8.379 113.15 9.738 113.559 12.464 113.587C15.19 113.615 16.557 113.235 16.564 112.536Z" fill="#D92F84"/>
<path d="M11.721 100.26C12.863 100.372 13.892 101.085 14.394 102.036C16.147 101.433 16.944 101.024 17.354 100.884C17.762 100.762 18.057 100.881 18.015 101.309L17.871 102.773C17.828 103.219 17.489 103.546 17.081 103.669C16.746 103.78 15.973 103.938 14.657 104.314L14.583 105.064L16.922 105.293C17.314 105.331 17.595 105.593 17.553 106.021L17.425 107.324C17.382 107.771 17.057 107.955 16.664 107.917C16.218 107.873 14.861 107.56 12.577 107.336C10.31 107.113 8.91801 107.157 8.45401 107.112C8.06101 107.073 7.779 106.829 7.823 106.383L8.16001 102.938C8.32301 101.278 9.98901 100.09 11.721 100.26ZM9.14001 104.53L13.459 104.953C13.557 103.954 12.659 103.001 11.481 102.885C10.357 102.775 9.25501 103.532 9.14001 104.53Z" fill="#D92F84"/>
<path d="M9.867 91.513C10 90.771 10.589 90.841 10.931 91.066C11.355 91.343 15.465 94.231 15.942 94.517C16.038 94.589 16.138 94.643 16.237 94.697C17.341 94.841 18.046 94.876 18.346 94.93C18.734 95 18.993 95.283 18.917 95.707L18.682 97.013C18.606 97.437 18.268 97.595 17.88 97.525C17.58 97.471 16.904 97.277 15.819 97.027L15.482 97.076C14.935 97.178 10.075 98.474 9.58101 98.586C9.18201 98.678 8.60901 98.521 8.73901 97.797L8.964 96.543C9.04 96.12 9.40301 95.821 9.82001 95.732C10.219 95.639 13.947 96.09 14.051 95.507C14.153 94.942 10.504 94.051 10.162 93.825C9.80201 93.597 9.56601 93.19 9.64201 92.766L9.867 91.513Z" fill="#D92F84"/>
<path d="M15.212 85.255C14.697 85.099 14.31 84.894 14.049 84.64C13.781 84.371 13.621 84.073 13.571 83.745C13.524 83.406 13.554 83.059 13.661 82.704C13.769 82.35 13.935 82.05 14.159 81.806C14.383 81.561 14.681 81.402 15.053 81.327C15.414 81.249 15.852 81.288 16.367 81.444C16.87 81.597 17.256 81.808 17.525 82.076C17.782 82.342 17.941 82.64 18.003 82.971C18.054 83.299 18.025 83.64 17.918 83.994C17.81 84.349 17.643 84.654 17.415 84.91C17.18 85.151 16.882 85.311 16.521 85.389C16.152 85.452 15.716 85.407 15.212 85.255Z" fill="#D92F84"/>
<path d="M16.495 70.527C17.552 68.131 19.647 67.468 22.65 68.793C25.653 70.118 26.576 72.113 25.519 74.509C24.462 76.904 22.366 77.567 19.363 76.243C16.361 74.918 15.438 72.923 16.495 70.527ZM24.748 74.168C25.037 73.512 23.95 72.601 21.456 71.501C18.962 70.4 17.555 70.211 17.266 70.867C16.983 71.507 18.071 72.418 20.565 73.519C23.059 74.619 24.465 74.808 24.748 74.168Z" fill="#D92F84"/>
<path d="M22.04 59.753C22.255 59.36 22.635 59.302 22.981 59.492C23.39 59.715 25.371 61.025 27.605 62.248C29.32 63.187 29.969 65.362 29.039 67.061C28.1 68.776 25.926 69.385 24.212 68.446C21.978 67.223 19.807 66.259 19.398 66.036C19.052 65.846 18.896 65.495 19.112 65.102L19.835 63.78C20.05 63.387 20.43 63.329 20.776 63.519C21.185 63.743 21.507 63.939 23.434 65.199C24.022 65.582 27.428 67.651 28.048 66.519C28.668 65.386 25.09 63.631 24.45 63.343C22.351 62.398 22.012 62.232 21.603 62.008C21.257 61.819 21.101 61.468 21.316 61.075L22.04 59.753Z" fill="#D92F84"/>
<path d="M29.495 54.147C30.455 54.776 31.036 55.885 31.04 56.96C32.873 57.238 33.768 57.245 34.197 57.311C34.615 57.392 34.821 57.634 34.586 57.995L33.78 59.225C33.534 59.6 33.083 59.733 32.664 59.652C32.316 59.595 31.558 59.378 30.217 59.101L29.805 59.731L31.77 61.018C32.101 61.234 32.228 61.596 31.992 61.956L31.275 63.051C31.03 63.426 30.657 63.439 30.326 63.223C29.951 62.978 28.894 62.071 26.974 60.814C25.068 59.566 23.814 58.96 23.424 58.705C23.094 58.489 22.957 58.141 23.203 57.766L25.098 54.87C26.012 53.475 28.039 53.194 29.495 54.147ZM25.228 56.735L28.86 59.112C29.41 58.272 29.056 57.011 28.066 56.363C27.12 55.744 25.793 55.904 25.228 56.735Z" fill="#D92F84"/>
<path d="M33.088 45.995C32.741 46.901 34.496 46.886 35.901 46.48C37.677 45.942 39.142 45.659 40.208 46.565C41.479 47.646 41.492 49.54 39.924 51.244C39.01 52.209 37.549 53.179 36.538 52.319C35.472 51.413 35.694 49.907 36.932 49.641C37.795 49.457 39.72 50.129 39.865 49.404C39.998 48.694 38.024 48.663 36.726 49.136C34.984 49.773 33.614 49.833 32.617 48.985C31.333 47.893 31.402 46.068 32.901 44.305C33.923 43.103 35.276 42.37 36.274 43.219C36.847 43.707 37.373 44.86 36.781 45.557C35.956 46.527 33.423 45.103 33.088 45.995Z" fill="#D92F84"/>
<path d="M40.896 35.966C42.156 34.715 44.276 37.539 43.385 38.423C42.519 39.282 41.081 37.375 40.393 38.057C40.393 38.057 41.593 39.545 42.856 40.818C44.473 42.447 45.586 43.288 45.902 43.606C46.18 43.886 46.23 44.267 45.924 44.57L44.995 45.493C44.677 45.808 44.309 45.744 44.031 45.464C43.715 45.145 42.87 44.039 41.252 42.41C39.989 41.137 38.522 39.914 38.522 39.914C37.822 40.609 39.719 42.062 38.867 42.908C37.976 43.793 35.155 41.665 36.428 40.401L40.896 35.966Z" fill="#D92F84"/>
<path d="M45.7 31.591C47.714 29.918 49.886 30.259 51.983 32.784C54.08 35.309 54.017 37.506 52.003 39.179C49.989 40.852 47.817 40.511 45.72 37.986C43.623 35.462 43.686 33.264 45.7 31.591ZM51.464 38.531C52.016 38.072 51.449 36.772 49.707 34.675C47.965 32.578 46.791 31.781 46.239 32.24C45.701 32.687 46.268 33.987 48.01 36.084C49.752 38.181 50.926 38.978 51.464 38.531Z" fill="#D92F84"/>
<path d="M58.077 26.6C58.73 27.545 58.85 28.792 58.448 29.788C60.041 30.737 60.867 31.082 61.239 31.305C61.596 31.538 61.695 31.839 61.341 32.084L60.131 32.92C59.762 33.174 59.294 33.127 58.937 32.894C58.635 32.71 58.015 32.223 56.878 31.461L56.259 31.889L57.594 33.822C57.818 34.146 57.799 34.53 57.445 34.774L56.368 35.518C55.999 35.773 55.649 35.645 55.424 35.32C55.17 34.951 54.532 33.713 53.228 31.824C51.934 29.95 51.001 28.915 50.736 28.532C50.512 28.207 50.516 27.834 50.885 27.579L53.733 25.612C55.106 24.664 57.089 25.169 58.077 26.6ZM53.15 27.388L55.617 30.959C56.443 30.388 56.591 29.087 55.918 28.113C55.276 27.184 53.987 26.832 53.15 27.388Z" fill="#D92F84"/>
<path d="M63.59 19.518C64.242 19.142 64.569 19.636 64.618 20.043C64.68 20.546 65.125 25.549 65.214 26.098C65.221 26.218 65.244 26.329 65.267 26.44C65.869 27.376 66.297 27.937 66.449 28.201C66.646 28.543 66.597 28.923 66.224 29.139L65.075 29.802C64.702 30.017 64.363 29.861 64.166 29.519C64.014 29.255 63.726 28.614 63.217 27.624L62.962 27.398C62.531 27.046 58.405 24.168 58.001 23.863C57.673 23.618 57.424 23.078 58.061 22.71L59.163 22.074C59.536 21.859 59.999 21.943 60.336 22.204C60.664 22.45 62.725 25.588 63.237 25.292C63.734 25.005 62.062 21.643 62.014 21.236C61.956 20.813 62.115 20.37 62.487 20.155L63.59 19.518Z" fill="#D92F84"/>
<path d="M71.845 19.548C71.633 19.054 71.541 18.625 71.567 18.263C71.6 17.884 71.725 17.57 71.944 17.32C72.173 17.066 72.458 16.866 72.798 16.72C73.139 16.574 73.475 16.508 73.806 16.522C74.137 16.536 74.451 16.661 74.748 16.898C75.04 17.124 75.292 17.484 75.504 17.979C75.712 18.462 75.799 18.893 75.766 19.271C75.729 19.639 75.603 19.953 75.39 20.214C75.172 20.463 74.892 20.661 74.552 20.807C74.211 20.953 73.87 21.022 73.527 21.012C73.191 20.987 72.877 20.862 72.585 20.636C72.299 20.394 72.053 20.032 71.845 19.548Z" fill="#D92F84"/>
<path d="M83.72 11.105C86.233 10.37 88.091 11.546 89.012 14.696C89.933 17.846 89.002 19.838 86.489 20.573C83.976 21.308 82.119 20.132 81.197 16.982C80.276 13.832 81.207 11.841 83.72 11.105ZM86.253 19.764C86.941 19.562 86.937 18.143 86.172 15.527C85.407 12.911 84.645 11.713 83.957 11.914C83.285 12.111 83.289 13.53 84.055 16.146C84.82 18.763 85.581 19.96 86.253 19.764Z" fill="#D92F84"/>
<path d="M95.583 8.38199C96.022 8.29299 96.311 8.54599 96.389 8.93299C96.481 9.38999 96.755 11.749 97.259 14.246C97.645 16.162 96.399 18.06 94.5 18.442C92.584 18.829 90.718 17.558 90.332 15.642C89.829 13.145 89.168 10.863 89.075 10.406C88.998 10.02 89.166 9.67499 89.605 9.58599L91.082 9.28799C91.522 9.19999 91.81 9.45299 91.888 9.83999C91.981 10.297 92.037 10.669 92.315 12.955C92.4 13.651 93.011 17.59 94.277 17.335C95.543 17.08 94.58 13.212 94.39 12.537C93.76 10.322 93.668 9.95699 93.576 9.49899C93.498 9.11299 93.667 8.76799 94.106 8.67899L95.583 8.38199Z" fill="#D92F84"/>
<path d="M104.877 10.444C105.012 11.584 104.535 12.742 103.714 13.435C104.677 15.019 105.247 15.71 105.471 16.081C105.678 16.454 105.624 16.767 105.197 16.817L103.737 16.99C103.291 17.043 102.899 16.782 102.693 16.409C102.512 16.105 102.192 15.385 101.544 14.179L100.796 14.268L101.072 16.601C101.118 16.992 100.922 17.323 100.495 17.373L99.195 17.527C98.75 17.579 98.5 17.302 98.454 16.91C98.401 16.465 98.417 15.072 98.148 12.793C97.88 10.531 97.54 9.18 97.486 8.717C97.439 8.325 97.617 7.997 98.062 7.945L101.5 7.539C103.156 7.343 104.673 8.717 104.877 10.444ZM100.154 8.835L100.664 13.145C101.661 13.028 102.4 11.947 102.261 10.771C102.129 9.649 101.154 8.735 100.154 8.835Z" fill="#D92F84"/>
<path d="M113.153 7.93301C112.237 8.25301 113.381 9.58401 114.598 10.395C116.155 11.404 117.318 12.34 117.313 13.739C117.308 15.407 115.87 16.64 113.556 16.543C112.229 16.467 110.545 15.978 110.549 14.651C110.554 13.252 111.847 12.449 112.849 13.223C113.547 13.763 114.276 15.666 114.923 15.31C115.552 14.953 114.301 13.425 113.102 12.74C111.491 11.82 110.561 10.813 110.565 9.50301C110.571 7.81801 112.009 6.69201 114.322 6.69901C115.901 6.70401 117.334 7.26501 117.33 8.57401C117.327 9.32701 116.786 10.473 115.871 10.47C114.598 10.467 114.051 7.61301 113.153 7.93301Z" fill="#D92F84"/>
<path d="M125.811 7.4C127.58 7.554 126.794 10.996 125.544 10.888C124.329 10.782 124.855 8.45099 123.891 8.36699C123.891 8.36699 123.529 10.244 123.374 12.031C123.175 14.318 123.252 15.711 123.213 16.157C123.179 16.55 122.92 16.834 122.491 16.797L121.187 16.683C120.74 16.644 120.552 16.322 120.586 15.929C120.625 15.482 120.924 14.122 121.123 11.835C121.278 10.048 121.264 8.139 121.264 8.139C120.282 8.053 120.398 10.44 119.201 10.336C117.95 10.227 117.753 6.699 119.54 6.855L125.811 7.4Z" fill="#D92F84"/>
<path d="M132.426 8.251C135.003 8.713 136.141 10.594 135.561 13.824C134.981 17.055 133.26 18.422 130.682 17.959C128.105 17.497 126.967 15.616 127.547 12.386C128.127 9.155 129.848 7.788 132.426 8.251ZM130.831 17.13C131.537 17.256 132.167 15.985 132.648 13.301C133.13 10.618 132.983 9.207 132.277 9.08C131.588 8.957 130.959 10.229 130.477 12.912C129.995 15.595 130.143 17.006 130.831 17.13Z" fill="#D92F84"/>
<path d="M144.243 14.486C143.942 15.594 143.067 16.49 142.047 16.826C142.349 18.655 142.62 19.509 142.689 19.937C142.742 20.36 142.575 20.631 142.16 20.518L140.741 20.133C140.308 20.015 140.042 19.627 139.989 19.204C139.935 18.855 139.908 18.067 139.757 16.706L139.03 16.509L138.414 18.777C138.311 19.157 138.006 19.39 137.591 19.278L136.327 18.935C135.894 18.817 135.766 18.467 135.87 18.086C135.987 17.653 136.522 16.367 137.123 14.152C137.72 11.954 137.909 10.574 138.031 10.124C138.134 9.743 138.422 9.506 138.855 9.623L142.195 10.53C143.805 10.967 144.699 12.807 144.243 14.486ZM140.462 11.23L139.326 15.419C140.295 15.682 141.384 14.955 141.694 13.813C141.99 12.723 141.427 11.511 140.462 11.23Z" fill="#D92F84"/>
<path d="M153.16 14.109C153.869 14.365 153.702 14.934 153.423 15.233C153.079 15.605 149.545 19.174 149.183 19.597C149.096 19.68 149.026 19.769 148.956 19.858C148.63 20.923 148.477 21.611 148.374 21.898C148.241 22.269 147.918 22.477 147.513 22.331L146.264 21.882C145.859 21.736 145.76 21.376 145.894 21.005C145.997 20.718 146.301 20.084 146.729 19.056L146.737 18.716C146.727 18.16 146.262 13.151 146.235 12.645C146.21 12.236 146.461 11.698 147.153 11.947L148.351 12.378C148.756 12.524 148.99 12.932 149.009 13.358C149.033 13.767 147.966 17.367 148.523 17.567C149.063 17.762 150.552 14.314 150.831 14.014C151.117 13.698 151.557 13.532 151.962 13.678L153.16 14.109Z" fill="#D92F84"/>
<path d="M158.511 20.454C158.752 19.973 159.019 19.625 159.313 19.411C159.623 19.192 159.944 19.085 160.276 19.091C160.618 19.101 160.955 19.19 161.286 19.355C161.618 19.521 161.885 19.735 162.088 19.997C162.291 20.259 162.398 20.58 162.409 20.959C162.425 21.328 162.313 21.753 162.072 22.235C161.837 22.705 161.564 23.05 161.254 23.269C160.949 23.478 160.628 23.585 160.292 23.59C159.96 23.585 159.629 23.499 159.297 23.333C158.966 23.168 158.693 22.951 158.479 22.684C158.281 22.411 158.174 22.09 158.158 21.721C158.158 21.347 158.276 20.925 158.511 20.454Z" fill="#D92F84"/>
<path d="M172.424 23.941C174.61 25.384 174.913 27.561 173.105 30.3C171.297 33.039 169.176 33.616 166.991 32.174C164.805 30.731 164.502 28.554 166.31 25.815C168.118 23.076 170.239 22.499 172.424 23.941ZM167.455 31.47C168.054 31.865 169.134 30.945 170.636 28.67C172.137 26.395 172.559 25.04 171.96 24.645C171.376 24.259 170.296 25.18 168.795 27.455C167.293 29.73 166.871 31.085 167.455 31.47Z" fill="#D92F84"/>
<path d="M182.408 31.412C182.759 31.691 182.752 32.074 182.507 32.383C182.217 32.749 180.592 34.481 179.009 36.476C177.795 38.008 175.541 38.281 174.023 37.077C172.492 35.863 172.258 33.617 173.473 32.086C175.055 30.09 176.372 28.113 176.661 27.748C176.907 27.438 177.279 27.344 177.63 27.623L178.81 28.559C179.162 28.838 179.155 29.221 178.91 29.531C178.62 29.896 178.372 30.18 176.805 31.867C176.328 32.382 173.714 35.39 174.725 36.192C175.737 36.994 178.071 33.764 178.463 33.182C179.749 31.272 179.969 30.966 180.259 30.6C180.504 30.291 180.876 30.197 181.227 30.476L182.408 31.412Z" fill="#D92F84"/>
<path d="M186.658 39.685C185.875 40.524 184.683 40.908 183.624 40.729C183.038 42.488 182.878 43.369 182.74 43.78C182.589 44.179 182.315 44.34 182 44.047L180.925 43.044C180.597 42.738 180.543 42.27 180.694 41.872C180.809 41.538 181.153 40.828 181.654 39.554L181.103 39.04L179.501 40.758C179.232 41.047 178.853 41.111 178.538 40.817L177.581 39.924C177.253 39.618 177.304 39.248 177.573 38.96C177.879 38.632 178.952 37.745 180.518 36.066C182.072 34.401 182.882 33.268 183.2 32.928C183.47 32.639 183.835 32.563 184.163 32.869L186.694 35.23C187.913 36.368 187.845 38.413 186.658 39.685ZM184.835 35.041L181.874 38.214C182.608 38.899 183.911 38.765 184.718 37.9C185.489 37.074 185.557 35.739 184.835 35.041Z" fill="#D92F84"/>
<path d="M193.767 44.188C192.931 43.697 192.657 45.43 192.826 46.882C193.065 48.723 193.104 50.215 192.035 51.117C190.76 52.193 188.889 51.894 187.465 50.068C186.664 49.007 185.947 47.407 186.962 46.551C188.031 45.649 189.48 46.115 189.539 47.38C189.578 48.262 188.6 50.05 189.29 50.312C189.969 50.56 190.325 48.618 190.071 47.26C189.729 45.436 189.895 44.076 190.896 43.232C192.184 42.145 193.973 42.512 195.465 44.281C196.482 45.487 196.983 46.942 195.982 47.786C195.406 48.272 194.182 48.601 193.592 47.902C192.771 46.929 194.592 44.665 193.767 44.188Z" fill="#D92F84"/>
<path d="M202.875 54.201C203.895 55.654 200.755 57.267 200.033 56.239C199.333 55.241 201.456 54.145 200.899 53.353C200.899 53.353 199.23 54.284 197.762 55.314C195.883 56.633 194.866 57.588 194.499 57.846C194.176 58.072 193.793 58.057 193.546 57.704L192.793 56.633C192.536 56.266 192.662 55.915 192.985 55.688C193.352 55.43 194.585 54.784 196.464 53.465C197.931 52.434 199.384 51.195 199.384 51.195C198.818 50.388 197.066 52.012 196.375 51.029C195.654 50.001 198.228 47.581 199.258 49.049L202.875 54.201Z" fill="#D92F84"/>
<path d="M206.622 60.068C207.922 62.341 207.212 64.421 204.363 66.051C201.514 67.681 199.361 67.24 198.06 64.967C196.76 62.694 197.471 60.614 200.319 58.984C203.168 57.354 205.321 57.795 206.622 60.068ZM198.792 64.548C199.148 65.171 200.527 64.836 202.893 63.482C205.259 62.129 206.246 61.109 205.89 60.487C205.543 59.879 204.164 60.214 201.798 61.568C199.432 62.922 198.445 63.941 198.792 64.548Z" fill="#D92F84"/>
<path d="M209.11 72.461C208.069 72.946 206.82 72.855 205.905 72.291C204.702 73.702 204.224 74.459 203.942 74.788C203.652 75.101 203.338 75.148 203.156 74.758L202.536 73.425C202.347 73.018 202.472 72.564 202.761 72.251C202.993 71.985 203.578 71.456 204.52 70.463L204.202 69.78L202.073 70.772C201.715 70.938 201.34 70.856 201.158 70.465L200.606 69.278C200.417 68.872 200.602 68.548 200.96 68.382C201.367 68.193 202.694 67.772 204.775 66.804C206.84 65.843 208.017 65.097 208.439 64.9C208.797 64.734 209.164 64.8 209.353 65.207L210.814 68.345C211.518 69.857 210.687 71.727 209.11 72.461ZM209.162 67.472L205.227 69.304C205.651 70.214 206.908 70.578 207.981 70.079C209.006 69.602 209.569 68.39 209.162 67.472Z" fill="#D92F84"/>
<path d="M215.041 78.722C215.303 79.428 214.761 79.668 214.352 79.648C213.846 79.625 208.839 79.229 208.283 79.226C208.163 79.213 208.05 79.217 207.936 79.22C206.913 79.658 206.288 79.986 206.003 80.092C205.633 80.23 205.266 80.118 205.116 79.714L204.653 78.47C204.503 78.067 204.714 77.759 205.084 77.621C205.37 77.515 206.05 77.339 207.111 77.002L207.376 76.788C207.795 76.422 211.321 72.834 211.689 72.487C211.986 72.204 212.56 72.048 212.816 72.737L213.26 73.931C213.41 74.334 213.249 74.777 212.935 75.066C212.638 75.348 209.2 76.856 209.406 77.411C209.606 77.949 213.201 76.861 213.61 76.881C214.036 76.895 214.447 77.125 214.597 77.528L215.041 78.722Z" fill="#D92F84"/>
<path d="M213.74 87.145C214.263 87.019 214.701 86.999 215.054 87.087C215.421 87.183 215.71 87.359 215.919 87.616C216.131 87.885 216.281 88.2 216.367 88.56C216.454 88.92 216.463 89.263 216.393 89.587C216.323 89.911 216.147 90.199 215.863 90.452C215.591 90.702 215.194 90.89 214.671 91.016C214.159 91.139 213.72 91.152 213.352 91.056C212.996 90.957 212.708 90.78 212.487 90.526C212.278 90.269 212.13 89.96 212.043 89.6C211.956 89.24 211.946 88.892 212.013 88.556C212.094 88.229 212.271 87.94 212.543 87.691C212.829 87.45 213.228 87.268 213.74 87.145Z" fill="#D92F84"/>
<path d="M220.118 100.597C220.416 103.198 218.942 104.829 215.681 105.202C212.421 105.575 210.616 104.32 210.318 101.718C210.021 99.117 211.495 97.486 214.755 97.113C218.016 96.739 219.82 97.995 220.118 100.597ZM211.156 101.622C211.237 102.335 212.636 102.572 215.345 102.262C218.053 101.952 219.362 101.405 219.281 100.692C219.201 99.997 217.802 99.76 215.094 100.07C212.386 100.38 211.076 100.927 211.156 101.622Z" fill="#D92F84"/>
<path d="M220.792 112.645C220.805 113.094 220.508 113.336 220.113 113.347C219.647 113.361 217.275 113.234 214.729 113.31C212.775 113.368 211.115 111.821 211.057 109.885C210.999 107.931 212.566 106.305 214.52 106.247C217.065 106.171 219.426 105.904 219.892 105.89C220.286 105.878 220.598 106.102 220.611 106.55L220.656 108.056C220.669 108.504 220.371 108.747 219.977 108.758C219.511 108.772 219.134 108.765 216.834 108.654C216.133 108.621 212.148 108.56 212.187 109.851C212.225 111.142 216.199 110.844 216.897 110.77C219.186 110.522 219.562 110.493 220.028 110.479C220.422 110.467 220.734 110.691 220.747 111.14L220.792 112.645Z" fill="#D92F84"/>
<path d="M217.204 121.393C216.058 121.335 214.996 120.671 214.45 119.746C212.727 120.431 211.951 120.877 211.548 121.036C211.145 121.177 210.845 121.072 210.867 120.642L210.941 119.174C210.964 118.726 211.287 118.383 211.689 118.242C212.018 118.115 212.782 117.92 214.079 117.482L214.117 116.73L211.771 116.612C211.377 116.592 211.084 116.344 211.106 115.914L211.172 114.606C211.195 114.158 211.51 113.959 211.904 113.979C212.352 114.001 213.722 114.25 216.015 114.366C218.289 114.481 219.678 114.371 220.143 114.395C220.537 114.415 220.831 114.645 220.808 115.093L220.634 118.55C220.55 120.215 218.941 121.481 217.204 121.393ZM219.58 117.006L215.246 116.787C215.195 117.79 216.137 118.7 217.319 118.759C218.448 118.816 219.512 118.008 219.58 117.006Z" fill="#D92F84"/>
<path d="M193.469 184.535C191.737 186.498 189.538 186.495 187.078 184.323C184.617 182.151 184.342 179.97 186.075 178.007C187.807 176.044 190.006 176.047 192.466 178.219C194.927 180.391 195.202 182.572 193.469 184.535ZM186.707 178.565C186.232 179.103 186.992 180.301 189.036 182.105C191.08 183.909 192.363 184.515 192.837 183.977C193.3 183.453 192.54 182.255 190.496 180.451C188.452 178.647 187.169 178.041 186.707 178.565Z" fill="#D92F84"/>
<path d="M184.971 193.103C184.647 193.413 184.268 193.354 183.995 193.069C183.673 192.732 182.179 190.885 180.418 189.045C179.067 187.633 179.104 185.363 180.504 184.024C181.916 182.672 184.172 182.748 185.524 184.16C187.284 186 189.063 187.574 189.386 187.911C189.658 188.196 189.701 188.578 189.377 188.888L188.288 189.929C187.964 190.239 187.585 190.18 187.312 189.895C186.99 189.558 186.743 189.273 185.285 187.491C184.841 186.948 182.218 183.948 181.285 184.84C180.352 185.733 183.234 188.486 183.756 188.954C185.473 190.489 185.746 190.748 186.068 191.085C186.341 191.37 186.384 191.752 186.06 192.062L184.971 193.103Z" fill="#D92F84"/>
<path d="M176.071 196.295C175.347 195.405 175.129 194.172 175.451 193.147C173.788 192.326 172.937 192.047 172.549 191.855C172.175 191.651 172.052 191.358 172.386 191.086L173.526 190.157C173.874 189.874 174.345 189.884 174.719 190.089C175.034 190.248 175.69 190.685 176.884 191.356L177.468 190.88L175.985 189.058C175.736 188.752 175.724 188.369 176.058 188.097L177.073 187.271C177.421 186.988 177.78 187.088 178.03 187.394C178.313 187.742 179.045 188.926 180.494 190.707C181.932 192.473 182.943 193.431 183.237 193.792C183.486 194.098 183.512 194.471 183.164 194.754L180.48 196.939C179.186 197.992 177.169 197.645 176.071 196.295ZM180.921 195.123L178.181 191.757C177.402 192.391 177.357 193.699 178.104 194.617C178.818 195.494 180.131 195.743 180.921 195.123Z" fill="#D92F84"/>
<path d="M218.305 129.944C218.142 128.988 216.64 129.894 215.637 130.959C214.383 132.326 213.266 133.317 211.888 133.08C210.244 132.797 209.268 131.173 209.748 128.908C210.044 127.613 210.807 126.033 212.115 126.258C213.494 126.495 214.07 127.905 213.14 128.764C212.491 129.362 210.493 129.764 210.737 130.461C210.984 131.141 212.699 130.162 213.574 129.093C214.75 127.658 215.897 126.909 217.188 127.131C218.849 127.417 219.719 129.022 219.327 131.302C219.059 132.858 218.268 134.178 216.978 133.956C216.236 133.828 215.196 133.103 215.351 132.202C215.567 130.947 218.471 130.882 218.305 129.944Z" fill="#D92F84"/>
<path d="M216.715 142.551C216.268 144.27 213.005 142.922 213.321 141.707C213.627 140.526 215.837 141.434 216.081 140.497C216.081 140.497 214.29 139.828 212.555 139.377C210.333 138.8 208.946 138.644 208.513 138.531C208.131 138.432 207.894 138.13 208.002 137.713L208.331 136.446C208.444 136.012 208.793 135.88 209.175 135.979C209.609 136.092 210.901 136.613 213.123 137.19C214.858 137.641 216.744 137.945 216.744 137.945C216.991 136.99 214.619 136.708 214.921 135.545C215.237 134.33 218.748 134.723 218.297 136.458L216.715 142.551Z" fill="#D92F84"/>
<path d="M214.739 149.022C213.852 151.486 211.808 152.294 208.72 151.182C205.632 150.071 204.571 148.145 205.458 145.681C206.345 143.218 208.39 142.41 211.478 143.521C214.566 144.633 215.626 146.559 214.739 149.022ZM206.251 145.967C206.008 146.642 207.157 147.475 209.722 148.398C212.287 149.321 213.703 149.412 213.946 148.737C214.183 148.079 213.034 147.246 210.469 146.322C207.904 145.399 206.488 145.309 206.251 145.967Z" fill="#D92F84"/>
<path d="M206.842 159.137C205.799 158.659 205.059 157.648 204.895 156.586C203.041 156.584 202.155 156.71 201.721 156.708C201.295 156.69 201.056 156.481 201.235 156.09L201.849 154.754C202.036 154.346 202.462 154.147 202.888 154.165C203.242 154.17 204.023 154.272 205.39 154.347L205.704 153.662L203.569 152.682C203.211 152.517 203.031 152.178 203.21 151.787L203.756 150.597C203.943 150.19 204.31 150.122 204.669 150.286C205.076 150.473 206.257 151.212 208.343 152.17C210.413 153.12 211.743 153.533 212.167 153.728C212.525 153.892 212.712 154.215 212.525 154.622L211.081 157.768C210.386 159.284 208.423 159.863 206.842 159.137ZM210.676 155.944L206.731 154.134C206.312 155.046 206.85 156.24 207.925 156.734C208.952 157.205 210.24 156.849 210.676 155.944Z" fill="#D92F84"/>
<path d="M205.682 168.12C205.312 168.777 204.779 168.518 204.53 168.193C204.22 167.792 201.286 163.715 200.929 163.289C200.862 163.189 200.786 163.105 200.71 163.021C199.714 162.523 199.06 162.258 198.795 162.109C198.451 161.916 198.299 161.563 198.51 161.188L199.16 160.031C199.371 159.656 199.742 159.618 200.086 159.811C200.352 159.96 200.927 160.366 201.87 160.957L202.204 161.022C202.754 161.105 207.771 161.477 208.274 161.533C208.681 161.577 209.171 161.914 208.81 162.555L208.186 163.665C207.975 164.04 207.534 164.203 207.111 164.151C206.703 164.107 203.331 162.458 203.041 162.974C202.759 163.474 205.912 165.514 206.162 165.839C206.426 166.173 206.516 166.635 206.306 167.01L205.682 168.12Z" fill="#D92F84"/>
<path d="M198.413 172.528C198.847 172.846 199.144 173.168 199.306 173.494C199.47 173.837 199.521 174.171 199.46 174.497C199.392 174.832 199.249 175.149 199.03 175.448C198.81 175.747 198.555 175.975 198.262 176.131C197.97 176.287 197.636 176.339 197.26 176.286C196.893 176.239 196.493 176.057 196.059 175.739C195.635 175.428 195.341 175.101 195.177 174.759C195.022 174.423 194.971 174.089 195.022 173.756C195.083 173.43 195.223 173.118 195.442 172.819C195.661 172.52 195.921 172.288 196.22 172.122C196.522 171.973 196.857 171.921 197.223 171.967C197.592 172.03 197.989 172.217 198.413 172.528Z" fill="#D92F84"/>
<path d="M113.658 95V129.551M113.658 129.551C113.658 125.274 116.773 116.719 129.232 116.719M113.658 129.551C113.352 125.274 109.993 116.719 99 116.719" stroke="#91D7E1" stroke-width="2.66753" stroke-linejoin="round"/>
</svg>
