<svg width="230" height="229" viewBox="0 0 230 229" fill="none" xmlns="http://www.w3.org/2000/svg">
<g clip-path="url(#clip0_308_1532)">
<path d="M226.16 115.033C226.16 176.418 176.398 226.18 115.013 226.18C53.6279 226.18 3.86559 176.418 3.86559 115.033C3.86559 53.6481 53.6279 3.88574 115.013 3.88574C176.398 3.88574 226.16 53.648 226.16 115.033Z" fill="#FFF5FA"/>
<path d="M213.257 121.157C212.144 121.114 211.106 120.482 210.566 119.59C208.903 120.275 208.155 120.716 207.765 120.875C207.377 121.017 207.085 120.918 207.101 120.501L207.156 119.075C207.173 118.641 207.482 118.304 207.87 118.163C208.188 118.036 208.927 117.838 210.181 117.399L210.209 116.668L207.931 116.58C207.549 116.566 207.262 116.328 207.278 115.911L207.327 114.642C207.344 114.207 207.647 114.01 208.03 114.025C208.465 114.041 209.797 114.267 212.022 114.353C214.23 114.438 215.576 114.316 216.028 114.333C216.41 114.348 216.698 114.568 216.681 115.003L216.551 118.359C216.489 119.976 214.943 121.222 213.257 121.157ZM215.512 116.873L211.304 116.711C211.267 117.684 212.191 118.556 213.338 118.6C214.434 118.642 215.457 117.846 215.512 116.873Z" fill="#EC0187"/>
<path d="M210.962 128.458C208.703 128.59 207.321 128.863 206.878 128.897C206.49 128.921 206.217 128.713 206.267 128.298L206.426 126.968C206.476 126.553 206.803 126.312 207.191 126.288L208.799 126.324C208.863 126.086 208.914 125.812 208.953 125.484C208.992 125.155 209.01 124.86 209.005 124.613C208.167 124.443 207.553 124.299 207.434 124.267C207.062 124.152 206.802 123.841 206.852 123.426L207.011 122.096C207.061 121.681 207.373 121.561 207.745 121.676C208.167 121.814 209.447 122.388 211.609 123.068C213.755 123.729 215.077 123.958 215.518 124.081C215.89 124.196 216.15 124.507 216.1 124.922L215.766 127.703C215.715 128.135 215.39 128.359 215.001 128.383C214.542 128.415 213.203 128.325 210.962 128.458ZM210.663 125.689C210.634 125.931 210.605 126.173 210.6 126.365C212.628 126.398 214.796 126.588 214.844 126.191C214.885 125.845 212.743 125.448 210.763 125C210.721 125.205 210.694 125.43 210.663 125.689Z" fill="#EC0187"/>
<path d="M214.029 137.504C213.946 137.913 213.622 138.025 213.261 137.88C212.834 137.705 211.608 137.013 209.521 136.182C207.418 135.347 206.119 135.013 205.71 134.841C205.348 134.697 205.11 134.383 205.197 133.956L205.753 131.211C205.836 130.801 206.181 130.587 206.57 130.595C207.01 130.613 208.337 130.811 210.6 130.861C212.848 130.891 214.244 130.748 214.705 130.752C215.094 130.76 215.353 130.972 215.266 131.399L214.966 132.882C214.883 133.292 214.538 133.506 214.149 133.498C213.691 133.476 206.627 132.417 206.548 132.81C206.472 133.185 213.391 134.96 213.817 135.135C214.178 135.279 214.416 135.594 214.33 136.02L214.029 137.504Z" fill="#EC0187"/>
<path d="M211.855 141.452C211.935 141.168 211.744 140.95 211.426 140.86L209.517 140.32C209.323 141.006 209.203 141.876 209.103 142.228C208.99 142.63 208.818 142.726 208.332 142.588L207.495 142.351C207.026 142.218 206.914 142.042 207.027 141.64C207.127 141.288 207.481 140.485 207.692 139.803L205.801 139.267C205.432 139.163 205.048 139.18 204.957 139.498C204.749 140.235 206.257 141.295 205.939 142.417C205.626 143.522 202.879 142.816 203.22 141.61L204.548 136.923C204.666 136.504 205.008 136.384 205.376 136.488C205.795 136.607 207.036 137.14 209.179 137.746C211.305 138.349 212.642 138.546 213.077 138.67C213.445 138.774 213.673 139.055 213.554 139.474L212.227 144.162C211.885 145.367 209.159 144.522 209.472 143.417C209.789 142.296 211.646 142.189 211.855 141.452Z" fill="#EC0187"/>
<path d="M204.487 155.661C203.462 155.227 202.715 154.269 202.525 153.244C200.727 153.296 199.871 153.444 199.45 153.455C199.037 153.45 198.798 153.255 198.961 152.87L199.517 151.556C199.686 151.156 200.094 150.95 200.508 150.955C200.85 150.949 201.612 151.025 202.939 151.058L203.224 150.385L201.125 149.497C200.772 149.348 200.588 149.024 200.75 148.64L201.245 147.47C201.415 147.069 201.768 146.992 202.121 147.141C202.522 147.311 203.688 147.993 205.739 148.86C207.774 149.721 209.076 150.083 209.493 150.259C209.845 150.408 210.036 150.716 209.867 151.116L208.559 154.209C207.928 155.7 206.042 156.319 204.487 155.661ZM208.112 152.452L204.234 150.812C203.854 151.709 204.41 152.851 205.468 153.299C206.477 153.726 207.716 153.343 208.112 152.452Z" fill="#EC0187"/>
<path d="M204.497 160.326C204.633 160.063 204.489 159.812 204.195 159.66L202.434 158.747C202.106 159.381 201.813 160.209 201.645 160.534C201.453 160.904 201.265 160.964 200.817 160.732L200.045 160.331C199.613 160.107 199.538 159.911 199.73 159.541C199.898 159.216 200.406 158.5 200.75 157.875L199.005 156.97C198.665 156.794 198.284 156.734 198.132 157.027C197.78 157.707 199.044 159.048 198.508 160.083C197.979 161.103 195.429 159.859 196.006 158.747L198.248 154.422C198.448 154.035 198.807 153.986 199.147 154.162C199.533 154.363 200.642 155.134 202.62 156.159C204.581 157.176 205.851 157.638 206.253 157.846C206.592 158.022 206.759 158.343 206.559 158.73L204.317 163.055C203.74 164.167 201.239 162.792 201.767 161.773C202.304 160.738 204.144 161.006 204.497 160.326Z" fill="#EC0187"/>
<path d="M199.808 170.614C199.588 170.969 199.244 170.961 198.956 170.7C198.618 170.387 197.709 169.311 196.042 167.806C194.361 166.291 193.26 165.525 192.936 165.221C192.648 164.96 192.534 164.583 192.764 164.213L194.241 161.833C194.462 161.478 194.86 161.398 195.222 161.541C195.628 161.711 196.803 162.359 198.906 163.193C201.004 164.004 202.362 164.356 202.792 164.521C203.154 164.664 203.323 164.953 203.094 165.322L202.295 166.608C202.075 166.963 201.677 167.044 201.315 166.901C200.894 166.721 194.64 163.269 194.429 163.609C194.227 163.934 200.095 168.007 200.434 168.32C200.722 168.581 200.836 168.959 200.606 169.328L199.808 170.614Z" fill="#EC0187"/>
<path d="M197.897 173.342C197.657 173.683 197.285 173.697 196.972 173.477C196.602 173.216 195.618 172.287 193.812 171.014C191.992 169.73 190.787 169.114 190.431 168.864C190.118 168.643 190.007 168.288 190.248 167.946L190.98 166.908C191.23 166.553 191.593 166.553 191.905 166.773C192.261 167.024 193.255 167.939 195.075 169.222C196.881 170.496 198.076 171.126 198.446 171.387C198.759 171.607 198.88 171.948 198.63 172.304L197.897 173.342Z" fill="#EC0187"/>
<path d="M194.098 176.617C194.281 176.385 194.187 176.111 193.928 175.906L192.372 174.676C191.929 175.235 191.485 175.993 191.259 176.28C191 176.608 190.804 176.63 190.408 176.317L189.726 175.778C189.344 175.476 189.307 175.269 189.566 174.942C189.793 174.655 190.428 174.048 190.884 173.499L189.342 172.28C189.041 172.043 188.679 171.911 188.474 172.171C187.999 172.771 188.987 174.328 188.264 175.243C187.551 176.144 185.283 174.439 186.06 173.456L189.082 169.635C189.352 169.293 189.713 169.313 190.014 169.551C190.355 169.82 191.298 170.788 193.045 172.169C194.778 173.54 195.937 174.234 196.292 174.515C196.592 174.752 196.695 175.099 196.425 175.441L193.403 179.262C192.626 180.245 190.431 178.421 191.143 177.52C191.867 176.605 193.623 177.218 194.098 176.617Z" fill="#EC0187"/>
<path d="M185.65 187.781C185.362 188.084 185.04 187.993 184.81 187.679C184.554 187.292 183.895 186.041 182.605 184.191C181.314 182.316 180.403 181.33 180.147 180.967C179.93 180.64 179.907 180.235 180.195 179.932L180.878 179.213C181.178 178.898 181.584 178.9 181.909 179.113C182.296 179.337 183.605 180.461 185.518 181.655L185.968 181.914L185.674 181.491C184.384 179.641 183.207 178.378 182.952 178.016C182.735 177.689 182.712 177.283 183 176.981L183.683 176.262C183.982 175.947 184.389 175.948 184.714 176.162C185.089 176.398 186.132 177.246 188.058 178.452C189.972 179.646 191.267 180.229 191.655 180.477C191.98 180.691 192.087 181.008 191.799 181.311L190.84 182.32C190.552 182.622 190.146 182.62 189.821 182.407C189.445 182.171 188.133 180.899 186.282 179.74C187.534 181.53 188.798 182.852 189.041 183.227C189.271 183.541 189.294 183.947 189.006 184.249L188.455 184.83C188.155 185.145 187.749 185.143 187.423 184.93C187.048 184.693 185.652 183.51 183.813 182.338C185.064 184.128 186.401 185.374 186.656 185.737C186.874 186.064 186.896 186.469 186.609 186.772L185.65 187.781Z" fill="#EC0187"/>
<path d="M181.744 189.793C182.205 188.973 180.518 188.739 179.113 188.93C177.332 189.196 175.885 189.262 174.99 188.241C173.923 187.025 174.178 185.204 175.923 183.79C176.937 182.993 178.476 182.268 179.325 183.236C180.22 184.256 179.795 185.671 178.569 185.751C177.714 185.806 175.962 184.889 175.721 185.564C175.492 186.227 177.383 186.536 178.695 186.265C180.458 185.899 181.781 186.035 182.618 186.99C183.697 188.22 183.373 189.962 181.685 191.442C180.534 192.451 179.132 192.964 178.295 192.009C177.813 191.459 177.471 190.278 178.138 189.693C179.067 188.878 181.296 190.602 181.744 189.793Z" fill="#EC0187"/>
<path d="M171.988 194.506C172.286 194.935 172.457 195.324 172.502 195.674C172.545 196.04 172.486 196.363 172.328 196.643C172.159 196.929 171.927 197.175 171.632 197.38C171.337 197.585 171.03 197.713 170.713 197.764C170.395 197.816 170.072 197.757 169.744 197.59C169.422 197.432 169.113 197.138 168.815 196.71C168.524 196.29 168.357 195.898 168.315 195.532C168.279 195.175 168.337 194.852 168.49 194.563C168.648 194.283 168.875 194.041 169.171 193.836C169.466 193.631 169.777 193.499 170.105 193.442C170.429 193.4 170.752 193.458 171.073 193.616C171.392 193.79 171.697 194.087 171.988 194.506Z" fill="#EC0187"/>
<path d="M158.058 203.363C157.534 202.381 157.558 201.166 158.056 200.25C156.626 199.158 155.868 198.734 155.535 198.478C155.217 198.213 155.154 197.911 155.523 197.715L156.782 197.044C157.166 196.84 157.612 196.938 157.931 197.202C158.201 197.413 158.744 197.952 159.755 198.813L160.4 198.47L159.328 196.458C159.148 196.12 159.209 195.752 159.577 195.556L160.699 194.959C161.083 194.755 161.406 194.918 161.586 195.255C161.79 195.639 162.266 196.904 163.313 198.87C164.352 200.82 165.135 201.921 165.348 202.32C165.528 202.658 165.483 203.017 165.099 203.222L162.134 204.8C160.706 205.561 158.851 204.853 158.058 203.363ZM162.894 203.154L160.915 199.437C160.055 199.895 159.767 201.132 160.307 202.146C160.822 203.113 162.026 203.596 162.894 203.154Z" fill="#EC0187"/>
<path d="M150.629 205.021C149.379 203.135 148.449 202.078 148.196 201.713C147.981 201.389 148.023 201.048 148.407 200.883L149.637 200.352C150.02 200.186 150.393 200.347 150.609 200.671L151.387 202.079C151.624 202.014 151.887 201.92 152.19 201.789C152.494 201.658 152.758 201.525 152.968 201.396C152.694 200.586 152.51 199.983 152.477 199.864C152.39 199.485 152.528 199.103 152.911 198.938L154.141 198.407C154.525 198.241 154.786 198.451 154.874 198.83C154.966 199.264 155.114 200.659 155.613 202.869C156.122 205.057 156.589 206.314 156.705 206.757C156.793 207.136 156.654 207.518 156.271 207.684L153.699 208.794C153.3 208.967 152.943 208.799 152.727 208.475C152.468 208.094 151.873 206.891 150.629 205.021ZM152.873 203.37C152.65 203.467 152.426 203.563 152.257 203.655C153.249 205.425 154.175 207.395 154.542 207.236C154.862 207.098 154.127 205.046 153.519 203.11C153.32 203.177 153.113 203.267 152.873 203.37Z" fill="#EC0187"/>
<path d="M144.29 212.225C143.894 212.358 143.635 212.133 143.578 211.748C143.516 211.292 143.501 209.883 143.174 207.661C142.842 205.423 142.48 204.131 142.423 203.691C142.367 203.306 142.52 202.943 142.932 202.804L145.587 201.909C145.982 201.775 146.341 201.967 146.529 202.307C146.734 202.697 147.228 203.945 148.318 205.927C149.42 207.888 150.244 209.024 150.47 209.425C150.659 209.766 150.605 210.096 150.193 210.235L148.758 210.718C148.362 210.852 148.004 210.66 147.816 210.32C147.605 209.913 144.98 203.27 144.601 203.398C144.238 203.52 146.171 210.397 146.233 210.853C146.289 211.238 146.137 211.602 145.724 211.741L144.29 212.225Z" fill="#EC0187"/>
<path d="M139.683 212.344C139.97 212.271 140.061 211.996 139.98 211.676L139.49 209.754C138.799 209.93 137.986 210.263 137.632 210.353C137.227 210.456 137.058 210.355 136.933 209.866L136.718 209.023C136.598 208.551 136.694 208.365 137.099 208.262C137.453 208.172 138.326 208.075 139.022 207.916L138.536 206.011C138.442 205.64 138.234 205.316 137.913 205.397C137.171 205.586 137.011 207.423 135.881 207.71C134.768 207.994 134.001 205.263 135.215 204.954L139.936 203.751C140.357 203.643 140.633 203.878 140.727 204.249C140.835 204.671 140.997 206.012 141.547 208.17C142.092 210.312 142.591 211.567 142.703 212.006C142.798 212.377 142.668 212.715 142.247 212.822L137.526 214.025C136.312 214.334 135.675 211.552 136.788 211.268C137.917 210.98 138.941 212.533 139.683 212.344Z" fill="#EC0187"/>
<path d="M123.832 213.066C123.691 211.961 124.143 210.833 124.933 210.153C123.984 208.626 123.425 207.961 123.204 207.603C123 207.243 123.049 206.939 123.463 206.886L124.878 206.705C125.31 206.65 125.693 206.899 125.896 207.259C126.074 207.552 126.391 208.248 127.031 209.412L127.756 209.319L127.467 207.058C127.418 206.678 127.605 206.356 128.02 206.303L129.279 206.142C129.711 206.087 129.956 206.354 130.004 206.734C130.059 207.165 130.057 208.516 130.339 210.725C130.619 212.917 130.962 214.224 131.019 214.673C131.068 215.053 130.898 215.372 130.467 215.428L127.136 215.853C125.53 216.059 124.046 214.74 123.832 213.066ZM128.429 214.583L127.895 210.406C126.929 210.53 126.221 211.585 126.367 212.724C126.506 213.811 127.46 214.689 128.429 214.583Z" fill="#EC0187"/>
<path d="M119.839 215.408C120.135 215.393 120.279 215.142 120.262 214.811L120.163 212.83C119.45 212.866 118.588 213.031 118.223 213.05C117.806 213.071 117.66 212.939 117.634 212.435L117.591 211.566C117.566 211.079 117.697 210.916 118.114 210.895C118.479 210.876 119.354 210.954 120.068 210.936L119.969 208.972C119.95 208.59 119.81 208.231 119.48 208.248C118.715 208.286 118.194 210.055 117.03 210.113C115.883 210.171 115.671 207.341 116.922 207.279L121.788 207.034C122.223 207.013 122.446 207.298 122.465 207.68C122.487 208.114 122.38 209.461 122.492 211.685C122.603 213.892 122.844 215.222 122.867 215.674C122.886 216.056 122.692 216.362 122.258 216.384L117.392 216.628C116.141 216.691 116.067 213.837 117.214 213.78C118.378 213.721 119.075 215.446 119.839 215.408Z" fill="#EC0187"/>
<path d="M108.196 216.515C107.779 216.502 107.614 216.201 107.696 215.821C107.797 215.371 108.273 214.045 108.741 211.849C109.21 209.635 109.321 208.298 109.421 207.866C109.502 207.486 109.772 207.198 110.207 207.212L113.007 207.298C113.425 207.311 113.694 207.615 113.751 208C113.808 208.437 113.836 209.778 114.167 212.017C114.516 214.238 114.892 215.59 114.965 216.045C115.023 216.43 114.857 216.721 114.423 216.707L112.909 216.661C112.492 216.648 112.223 216.343 112.165 215.959C112.11 215.504 111.965 208.363 111.565 208.35C111.182 208.338 110.597 215.458 110.496 215.907C110.414 216.288 110.144 216.575 109.709 216.562L108.196 216.515Z" fill="#EC0187"/>
<path d="M104.881 216.227C104.465 216.19 104.265 215.875 104.299 215.494C104.339 215.043 104.649 213.726 104.845 211.525C105.042 209.306 104.97 207.955 105.008 207.521C105.042 207.14 105.294 206.866 105.71 206.903L106.975 207.015C107.408 207.054 107.59 207.367 107.556 207.748C107.518 208.181 107.226 209.5 107.028 211.719C106.833 213.92 106.887 215.27 106.847 215.721C106.813 216.102 106.579 216.378 106.146 216.339L104.881 216.227Z" fill="#EC0187"/>
<path d="M100.141 214.578C100.434 214.62 100.624 214.401 100.67 214.073L100.952 212.11C100.246 212.009 99.3676 212.006 99.0059 211.954C98.5925 211.894 98.4745 211.737 98.5462 211.237L98.6698 210.376C98.739 209.894 98.899 209.759 99.3123 209.818C99.674 209.87 100.518 210.114 101.222 210.233L101.501 208.286C101.555 207.907 101.487 207.528 101.159 207.481C100.401 207.373 99.5515 209.009 98.3976 208.843C97.2608 208.68 97.5948 205.863 98.8348 206.041L103.657 206.733C104.088 206.794 104.253 207.117 104.198 207.496C104.136 207.926 103.774 209.228 103.458 211.432C103.144 213.62 103.126 214.971 103.061 215.418C103.007 215.797 102.758 216.06 102.328 215.999L97.5053 215.307C96.2652 215.129 96.7394 212.314 97.8761 212.477C99.0301 212.643 99.3833 214.469 100.141 214.578Z" fill="#EC0187"/>
<path d="M86.2418 212.858C85.8356 212.761 85.7519 212.437 85.9085 212.081C86.115 211.665 86.866 210.467 87.819 208.423C88.7929 206.365 89.1885 205.082 89.3741 204.679C89.5475 204.327 89.887 204.104 90.2932 204.201L91.2579 204.431C91.681 204.532 91.8831 204.885 91.862 205.273C91.8626 205.72 91.5474 207.416 91.4745 209.671L91.4758 210.19L91.6945 209.723C92.6475 207.679 93.1488 206.027 93.3344 205.624C93.5079 205.272 93.8473 205.049 94.2535 205.146L95.2182 205.376C95.6413 205.477 95.8435 205.83 95.8223 206.218C95.806 206.661 95.5966 207.989 95.5197 210.26C95.4468 212.515 95.5928 213.927 95.5724 214.387C95.5513 214.776 95.3303 215.027 94.9241 214.93L93.5701 214.607C93.1639 214.51 92.9618 214.158 92.9829 213.769C92.9993 213.326 93.4403 211.553 93.5139 209.37C92.594 211.351 92.0854 213.108 91.8828 213.507C91.7263 213.863 91.3868 214.086 90.9807 213.989L90.2021 213.803C89.779 213.702 89.5769 213.35 89.598 212.961C89.6144 212.518 89.9369 210.717 90.0274 208.538C89.1076 210.519 88.7004 212.3 88.5148 212.703C88.3414 213.055 88.0019 213.278 87.5957 213.181L86.2418 212.858Z" fill="#EC0187"/>
<path d="M82.5274 210.464C83.4684 210.454 82.8304 208.876 81.9635 207.753C80.8456 206.342 80.0674 205.12 80.5058 203.836C81.0285 202.304 82.7336 201.618 84.8298 202.425C86.0259 202.907 87.4221 203.88 87.0062 205.098C86.5678 206.383 85.1293 206.719 84.4488 205.696C83.9752 204.983 83.8957 203.007 83.1905 203.134C82.5018 203.267 83.1768 205.06 84.0665 206.062C85.2619 207.408 85.8035 208.622 85.3932 209.824C84.8649 211.372 83.1935 211.96 81.0692 211.235C79.6201 210.74 78.477 209.78 78.8872 208.578C79.1233 207.887 79.977 207.001 80.8168 207.288C81.986 207.687 81.6029 210.479 82.5274 210.464Z" fill="#EC0187"/>
<path d="M73.6081 204.364C73.3852 204.836 73.1335 205.179 72.853 205.393C72.5569 205.612 72.2481 205.723 71.9264 205.725C71.5943 205.722 71.2656 205.644 70.9404 205.49C70.6153 205.337 70.3513 205.135 70.1485 204.885C69.9457 204.636 69.8349 204.327 69.8163 203.959C69.7926 203.601 69.8923 203.187 70.1151 202.715C70.3331 202.253 70.59 201.913 70.886 201.693C71.1771 201.484 71.4859 201.373 71.8126 201.361C72.1342 201.359 72.4577 201.435 72.7828 201.588C73.108 201.742 73.3772 201.946 73.5905 202.2C73.7884 202.461 73.8991 202.769 73.9227 203.127C73.9309 203.49 73.826 203.902 73.6081 204.364Z" fill="#EC0187"/>
<path d="M59.0117 196.712C59.6026 195.768 60.6672 195.182 61.7093 195.157C61.943 193.374 61.9326 192.505 61.9882 192.088C62.0586 191.681 62.2893 191.476 62.6432 191.698L63.8526 192.455C64.2213 192.686 64.3593 193.121 64.2889 193.529C64.2407 193.868 64.0447 194.608 63.8022 195.913L64.4216 196.301L65.631 194.369C65.8342 194.044 66.1828 193.914 66.5368 194.135L67.6134 194.809C67.9821 195.04 68.0022 195.402 67.7991 195.726C67.5682 196.095 66.7099 197.138 65.5281 199.026C64.3556 200.899 63.7921 202.127 63.5521 202.51C63.349 202.835 63.015 202.975 62.6463 202.744L59.7999 200.962C58.4283 200.103 58.1162 198.143 59.0117 196.712ZM61.6057 200.799L63.8399 197.23C63.014 196.713 61.7983 197.081 61.189 198.054C60.6073 198.984 60.789 200.267 61.6057 200.799Z" fill="#EC0187"/>
<path d="M53.8932 191.115C54.902 189.09 55.353 187.755 55.5429 187.354C55.7157 187.006 56.0319 186.872 56.3668 187.122L57.4416 187.922C57.7766 188.171 57.8233 188.575 57.6506 188.923L56.8204 190.301C56.9951 190.474 57.208 190.654 57.4732 190.852C57.7384 191.049 57.9861 191.212 58.2023 191.329C58.7671 190.687 59.197 190.226 59.2837 190.139C59.568 189.873 59.968 189.802 60.303 190.051L61.3777 190.851C61.7127 191.101 61.6617 191.432 61.3773 191.697C61.0478 191.994 59.9129 192.819 58.2481 194.357C56.6077 195.89 55.7519 196.924 55.426 197.245C55.1416 197.511 54.7416 197.582 54.4066 197.332L52.1594 195.66C51.8105 195.4 51.7777 195.007 51.9504 194.658C52.1508 194.243 52.8949 193.127 53.8932 191.115ZM56.4447 192.234C56.2493 192.088 56.0539 191.943 55.8899 191.842C54.8523 193.586 53.6095 195.372 53.9306 195.611C54.2097 195.819 55.62 194.158 56.9926 192.663C56.8355 192.524 56.6541 192.389 56.4447 192.234Z" fill="#EC0187"/>
<path d="M44.4465 189.178C44.1335 188.902 44.199 188.565 44.5046 188.324C44.8693 188.042 46.0824 187.326 47.8454 185.935C49.6199 184.531 50.5591 183.573 50.9123 183.305C51.2179 183.064 51.6094 183.015 51.9354 183.303L54.0348 185.158C54.3477 185.434 54.3605 185.84 54.1592 186.173C53.9234 186.545 53.0885 187.596 51.9138 189.53C50.7636 191.462 50.1895 192.743 49.9552 193.139C49.7539 193.472 49.4407 193.59 49.1147 193.302L47.9802 192.3C47.6673 192.024 47.6545 191.618 47.8558 191.285C48.1031 190.899 52.5527 185.311 52.2528 185.046C51.9659 184.793 46.9687 189.897 46.604 190.179C46.2983 190.419 45.9069 190.468 45.5809 190.18L44.4465 189.178Z" fill="#EC0187"/>
<path d="M42.0442 185.255C42.2503 185.467 42.5341 185.41 42.7713 185.179L44.1941 183.797C43.6971 183.285 43.0035 182.746 42.7489 182.484C42.458 182.185 42.4608 181.988 42.8228 181.636L43.4468 181.03C43.7963 180.691 44.0056 180.681 44.2966 180.981C44.5512 181.243 45.07 181.952 45.5546 182.476L46.9649 181.106C47.2395 180.839 47.4167 180.497 47.1864 180.26C46.653 179.711 44.9805 180.486 44.1683 179.65C43.3681 178.826 45.354 176.8 46.2269 177.699L49.6215 181.194C49.9246 181.506 49.8579 181.862 49.5833 182.128C49.2713 182.431 48.189 183.24 46.5914 184.792C45.0063 186.331 44.1665 187.39 43.842 187.705C43.5674 187.972 43.2098 188.028 42.9067 187.716L39.5121 184.221C38.6392 183.323 40.7346 181.384 41.5348 182.208C42.347 183.044 41.5108 184.706 42.0442 185.255Z" fill="#EC0187"/>
<path d="M33.5116 171.925C34.3975 171.251 35.6004 171.078 36.5843 171.423C37.4323 169.837 37.7291 169.02 37.9282 168.65C38.1379 168.293 38.426 168.183 38.679 168.515L39.5433 169.651C39.8069 169.997 39.7823 170.453 39.5727 170.809C39.4078 171.11 38.9634 171.732 38.2757 172.868L38.7184 173.45L40.5319 172.069C40.8364 171.837 41.2088 171.838 41.4618 172.17L42.2313 173.181C42.4948 173.527 42.386 173.872 42.0814 174.104C41.7354 174.368 40.564 175.041 38.7921 176.39C37.0339 177.729 36.0734 178.679 35.7135 178.953C35.4089 179.185 35.0471 179.198 34.7836 178.852L32.7491 176.18C31.7688 174.893 32.1688 172.948 33.5116 171.925ZM34.4962 176.665L37.8463 174.114C37.256 173.339 35.9886 173.254 35.075 173.95C34.2028 174.614 33.9197 175.879 34.4962 176.665Z" fill="#EC0187"/>
<path d="M29.4867 169.66C29.6473 169.909 29.9369 169.908 30.2145 169.728L31.8802 168.651C31.4928 168.052 30.9181 167.388 30.7197 167.081C30.493 166.73 30.5343 166.538 30.958 166.264L31.6886 165.792C32.0977 165.527 32.3048 165.559 32.5315 165.91C32.7299 166.216 33.1001 167.013 33.4728 167.622L35.1239 166.554C35.4453 166.346 35.686 166.045 35.5065 165.768C35.0908 165.125 33.299 165.558 32.666 164.579C32.0424 163.615 34.3863 162.017 35.0665 163.069L37.712 167.16C37.9482 167.525 37.8132 167.861 37.4917 168.069C37.1264 168.305 35.9069 168.886 34.0366 170.096C32.181 171.296 31.1504 172.169 30.7705 172.415C30.4491 172.623 30.0873 172.608 29.8511 172.243L27.2057 168.152C26.5254 167.1 28.9594 165.609 29.583 166.573C30.216 167.552 29.071 169.017 29.4867 169.66Z" fill="#EC0187"/>
<path d="M22.8846 160.501C22.6856 160.134 22.8628 159.84 23.2325 159.718C23.6717 159.579 25.0568 159.323 27.1903 158.622C29.339 157.913 30.5501 157.335 30.974 157.205C31.3437 157.083 31.7281 157.172 31.9354 157.554L33.2703 160.017C33.4693 160.384 33.3419 160.77 33.0386 161.014C32.6893 161.282 31.5446 161.982 29.7773 163.395C28.0335 164.815 27.0547 165.821 26.6984 166.113C26.395 166.356 26.0603 166.36 25.853 165.977L25.1317 164.646C24.9327 164.279 25.0601 163.893 25.3634 163.65C25.728 163.373 31.8257 159.652 31.635 159.3C31.4526 158.964 25.0066 162.042 24.5674 162.181C24.1977 162.303 23.8133 162.214 23.606 161.832L22.8846 160.501Z" fill="#EC0187"/>
<path d="M21.4594 157.476C21.2825 157.098 21.4547 156.768 21.8014 156.606C22.2112 156.414 23.506 156.02 25.5077 155.084C27.5252 154.141 28.6578 153.4 29.0518 153.215C29.3986 153.053 29.7623 153.133 29.9392 153.511L30.4773 154.662C30.6615 155.056 30.482 155.37 30.1353 155.532C29.7412 155.717 28.4539 156.127 26.4364 157.07C24.4346 158.006 23.2947 158.731 22.8849 158.923C22.5381 159.085 22.1817 159.021 21.9975 158.627L21.4594 157.476Z" fill="#EC0187"/>
<path d="M20.4896 152.519C20.5997 152.794 20.8841 152.849 21.1909 152.726L23.0319 151.987C22.7664 151.325 22.3294 150.563 22.1934 150.224C22.038 149.836 22.1153 149.655 22.5837 149.467L23.3911 149.143C23.8433 148.962 24.0405 149.033 24.1959 149.421C24.3319 149.76 24.5428 150.612 24.7922 151.281L26.6171 150.549C26.9723 150.407 27.2661 150.158 27.1431 149.851C26.858 149.14 25.0164 149.223 24.5824 148.141C24.1549 147.075 26.7613 145.954 27.2277 147.117L29.0414 151.639C29.2033 152.043 29.0065 152.347 28.6512 152.489C28.2475 152.651 26.9392 152.988 24.8721 153.817C22.8212 154.64 21.6425 155.3 21.2226 155.469C20.8673 155.611 20.515 155.527 20.3531 155.124L18.5394 150.602C18.0731 149.439 20.7474 148.442 21.175 149.507C21.6089 150.589 20.2046 151.809 20.4896 152.519Z" fill="#EC0187"/>
<path d="M15.0481 139.79C14.9283 139.39 15.1667 139.155 15.5533 139.112C16.0167 139.082 17.4299 139.131 19.6766 138.93C21.9449 138.741 23.2532 138.439 23.6949 138.398C24.0866 138.371 24.4498 138.553 24.5697 138.953L24.8544 139.903C24.9793 140.32 24.7758 140.671 24.4291 140.848C24.0424 141.073 22.4173 141.651 20.4304 142.718L19.982 142.98L20.4953 142.935C22.7419 142.734 24.422 142.34 24.8637 142.298C25.2553 142.272 25.6186 142.453 25.7385 142.853L26.0232 143.803C26.148 144.22 25.9446 144.572 25.5979 144.748C25.2062 144.956 23.9527 145.441 21.9492 146.514C19.9623 147.581 18.8137 148.416 18.4053 148.629C18.0586 148.806 17.7303 148.741 17.6104 148.341L17.2109 147.007C17.091 146.607 17.2944 146.256 17.6411 146.079C18.0328 145.871 19.7879 145.363 21.7132 144.332C19.5382 144.53 17.7631 144.971 17.3165 144.996C16.9298 145.039 16.5665 144.857 16.4467 144.457L16.2169 143.69C16.092 143.274 16.2955 142.922 16.6422 142.746C17.0339 142.537 18.754 141.913 20.6843 140.899C18.5093 141.096 16.7642 141.637 16.3225 141.679C15.9309 141.705 15.5676 141.524 15.4477 141.124L15.0481 139.79Z" fill="#EC0187"/>
<path d="M15.2053 135.216C15.6854 136.025 16.7313 134.682 17.2687 133.369C17.9295 131.694 18.5965 130.409 19.9277 130.144C21.5148 129.829 22.9637 130.96 23.3157 133.179C23.4983 134.455 23.3563 136.151 22.0934 136.402C20.7622 136.666 19.7501 135.59 20.2941 134.489C20.6738 133.721 22.3438 132.662 21.8805 132.116C21.4205 131.586 20.2072 133.069 19.7858 134.341C19.2206 136.05 18.4412 137.128 17.1953 137.375C15.5911 137.694 14.2447 136.542 13.8073 134.341C13.5089 132.839 13.7668 131.368 15.0126 131.121C15.7294 130.978 16.9233 131.273 17.0963 132.144C17.337 133.355 14.7286 134.424 15.2053 135.216Z" fill="#EC0187"/>
<path d="M16.0207 124.665C15.5006 124.709 15.0776 124.663 14.7518 124.528C14.4134 124.382 14.1626 124.171 13.9993 123.894C13.8351 123.605 13.7377 123.281 13.7072 122.923C13.6768 122.565 13.7186 122.235 13.8327 121.934C13.9468 121.634 14.1583 121.383 14.4672 121.182C14.7645 120.982 15.1733 120.86 15.6934 120.816C16.2019 120.773 16.6254 120.824 16.9638 120.97C17.2906 121.116 17.5414 121.328 17.7162 121.604C17.8795 121.881 17.9764 122.199 18.0069 122.557C18.0373 122.916 17.996 123.251 17.8829 123.563C17.7572 123.865 17.5457 124.116 17.2484 124.316C16.9385 124.505 16.5293 124.621 16.0207 124.665Z" fill="#EC0187"/>
<path d="M15.2831 107.856C16.396 107.895 17.4361 108.523 17.9796 109.412C19.6404 108.721 20.3871 108.277 20.7757 108.116C21.1638 107.973 21.4563 108.07 21.4418 108.487L21.392 109.913C21.3768 110.348 21.0691 110.685 20.681 110.829C20.3632 110.957 19.6249 111.158 18.3733 111.602L18.3478 112.332L20.6258 112.411C21.0084 112.424 21.2961 112.661 21.2815 113.078L21.2372 114.347C21.2221 114.782 20.9192 114.981 20.5366 114.967C20.1019 114.952 18.7689 114.732 16.5431 114.655C14.3346 114.579 12.9896 114.706 12.5375 114.691C12.1549 114.677 11.8666 114.458 11.8817 114.024L11.9989 110.668C12.0553 109.05 13.5963 107.798 15.2831 107.856ZM13.044 112.149L17.2523 112.294C17.2863 111.321 16.359 110.453 15.2113 110.413C14.1157 110.375 13.0954 111.176 13.044 112.149Z" fill="#EC0187"/>
<path d="M17.5462 100.563C19.8047 100.422 21.1857 100.145 21.6278 100.108C22.0161 100.083 22.2899 100.29 22.2417 100.705L22.0871 102.036C22.0389 102.451 21.713 102.693 21.3247 102.718L19.7166 102.689C19.6539 102.927 19.6045 103.202 19.5663 103.53C19.5282 103.858 19.5114 104.154 19.5178 104.4C20.3567 104.568 20.9709 104.709 21.0898 104.74C21.462 104.854 21.7237 105.164 21.6756 105.579L21.521 106.91C21.4728 107.325 21.1609 107.446 20.7887 107.333C20.3667 107.196 19.084 106.627 16.9199 105.955C14.771 105.303 13.4482 105.079 13.0069 104.958C12.6347 104.844 12.373 104.534 12.4212 104.119L12.7444 101.336C12.7945 100.904 13.1185 100.679 13.5067 100.654C13.9662 100.62 15.305 100.705 17.5462 100.563ZM17.8553 103.331C17.8834 103.089 17.9115 102.847 17.9163 102.655C15.8873 102.63 13.7188 102.448 13.6726 102.845C13.6325 103.191 15.7769 103.58 17.7577 104.021C17.799 103.815 17.8251 103.59 17.8553 103.331Z" fill="#EC0187"/>
<path d="M14.4319 91.5709C14.5133 91.1613 14.8373 91.0483 15.1992 91.1911C15.626 91.3646 16.8553 92.0523 18.9448 92.8754C21.0513 93.702 22.3518 94.0313 22.7615 94.2014C23.1234 94.3442 23.3627 94.6579 23.2779 95.0845L22.732 97.8322C22.6506 98.2418 22.3063 98.4572 21.9173 98.4509C21.477 98.4344 20.1494 98.2416 17.8869 98.2001C15.6381 98.1791 14.2426 98.3276 13.782 98.3248C13.3929 98.3185 13.1333 98.1072 13.2181 97.6806L13.5131 96.1958C13.5944 95.7862 13.9388 95.5708 14.3278 95.5771C14.7851 95.597 21.8535 96.6288 21.9315 96.2362C22.0061 95.8608 15.0801 94.1123 14.6533 93.9388C14.2914 93.7959 14.0522 93.4823 14.1369 93.0556L14.4319 91.5709Z" fill="#EC0187"/>
<path d="M16.6818 87.2613C16.6012 87.5459 16.7929 87.7629 17.1109 87.853L19.0194 88.3936C19.2139 87.7072 19.3338 86.8369 19.4333 86.4854C19.5471 86.0836 19.719 85.9876 20.2045 86.1251L21.0416 86.3622C21.5103 86.495 21.6231 86.6716 21.5092 87.0734C21.4097 87.4249 21.0554 88.2288 20.8442 88.9104L22.736 89.4463C23.1043 89.5506 23.4891 89.533 23.5792 89.2149C23.7878 88.4783 22.2796 87.4182 22.5973 86.2965C22.9103 85.1916 25.6581 85.8975 25.3167 87.1029L23.989 91.7904C23.8704 92.209 23.5289 92.3292 23.1606 92.2249C22.7421 92.1064 21.5004 91.5738 19.3575 90.9669C17.2314 90.3647 15.8949 90.167 15.4596 90.0437C15.0913 89.9394 14.8636 89.6579 14.9822 89.2394L16.3099 84.5518C16.6513 83.3464 19.3779 84.1911 19.0649 85.296C18.7472 86.4176 16.8904 86.5247 16.6818 87.2613Z" fill="#EC0187"/>
<path d="M23.868 73.4209C24.8952 73.8509 25.6459 74.8064 25.8397 75.8306C27.6373 75.7719 28.4928 75.6207 28.9131 75.608C29.3267 75.6114 29.5659 75.8058 29.4047 76.1911L28.8538 77.5072C28.6858 77.9085 28.2786 78.1153 27.865 78.1119C27.5224 78.1194 26.7609 78.0459 25.4332 78.0183L25.1511 78.6924L27.2537 79.5725C27.6068 79.7203 27.7923 80.0432 27.6311 80.4284L27.1406 81.6001C26.9727 82.0013 26.6192 82.0797 26.2661 81.9319C25.8648 81.764 24.6961 81.0862 22.6417 80.2262C20.6033 79.373 19.3002 79.0162 18.8829 78.8416C18.5298 78.6938 18.3375 78.3869 18.5055 77.9857L19.8021 74.8879C20.4269 73.3952 22.3111 72.7692 23.868 73.4209ZM20.2557 76.6434L24.1399 78.2692C24.5161 77.3704 23.9558 76.2304 22.8965 75.787C21.8853 75.3638 20.6479 75.7513 20.2557 76.6434Z" fill="#EC0187"/>
<path d="M23.8411 68.7324C23.706 68.9955 23.8511 69.2461 24.1452 69.3971L25.9096 70.3034C26.2356 69.6689 26.5247 68.8393 26.6917 68.5143C26.8825 68.1429 27.0699 68.0826 27.5187 68.3132L28.2926 68.7107C28.726 68.9333 28.8017 69.1287 28.6109 69.5001C28.4439 69.8252 27.9381 70.5434 27.5966 71.17L29.3456 72.0684C29.6861 72.2433 30.0668 72.3019 30.2178 72.0078C30.5676 71.3268 29.2981 69.9901 29.8308 68.9531C30.3555 67.9316 32.9101 69.1655 32.3377 70.2799L30.1117 74.6136C29.9129 75.0005 29.5544 75.0511 29.2139 74.8762C28.827 74.6774 27.7147 73.9105 25.7336 72.8929C23.768 71.8832 22.4967 71.4258 22.0943 71.2191C21.7538 71.0442 21.5861 70.7234 21.7848 70.3364L24.0109 66.0028C24.5833 64.8884 27.0898 66.2541 26.5651 67.2756C26.0324 68.3126 24.1909 68.0514 23.8411 68.7324Z" fill="#EC0187"/>
<path d="M28.4806 58.4253C28.6996 58.0698 29.0427 58.0767 29.3322 58.3367C29.6718 58.648 30.5845 59.7209 32.2562 61.2204C33.9428 62.729 35.0471 63.4908 35.3719 63.793C35.6614 64.053 35.7764 64.4303 35.5483 64.8007L34.0793 67.1861C33.8603 67.5417 33.4625 67.6236 33.1001 67.4821C32.6932 67.3133 31.5158 66.67 29.4096 65.8429C27.309 65.0398 25.9492 64.6928 25.5184 64.5297C25.1559 64.3882 24.9862 64.0998 25.2143 63.7294L26.0081 62.4404C26.227 62.0848 26.6249 62.0029 26.9873 62.1443C27.409 62.3223 33.6751 65.752 33.885 65.4112C34.0857 65.0853 28.2028 61.0333 27.8632 60.722C27.5738 60.462 27.4588 60.0847 27.6869 59.7143L28.4806 58.4253Z" fill="#EC0187"/>
<path d="M30.3614 55.7056C30.6008 55.3635 30.9729 55.3478 31.2865 55.5672C31.6572 55.8266 32.6451 56.7516 34.4555 58.0187C36.2803 59.2957 37.4877 59.9071 37.8441 60.1565C38.1577 60.376 38.2703 60.7309 38.0309 61.073L37.3026 62.1137C37.0532 62.4701 36.6911 62.4715 36.3775 62.252C36.0211 62.0026 35.0232 61.0919 33.1985 59.8149C31.388 58.5478 30.1906 57.9222 29.8199 57.6628C29.5063 57.4433 29.3837 57.1027 29.6331 56.7463L30.3614 55.7056Z" fill="#EC0187"/>
<path d="M34.121 52.4388C33.9384 52.6715 34.0334 52.9451 34.2935 53.1492L35.8539 54.3738C36.2943 53.8126 36.7356 53.053 36.9612 52.7655C37.219 52.437 37.4144 52.4134 37.8114 52.7249L38.4958 53.262C38.8791 53.5628 38.9163 53.769 38.6585 54.0975C38.4329 54.3849 37.8 54.9942 37.3459 55.5446L38.8927 56.7585C39.1938 56.9948 39.5565 57.1245 39.7606 56.8645C40.2332 56.2622 39.2404 54.7089 39.9601 53.7918C40.669 52.8884 42.9432 54.5846 42.1697 55.5701L39.162 59.4028C38.8935 59.745 38.5319 59.7266 38.2307 59.4903C37.8885 59.2218 36.942 58.2578 35.1899 56.8828C33.4515 55.5186 32.2901 54.8284 31.9342 54.5491C31.633 54.3128 31.5292 53.9659 31.7978 53.6237L34.8055 49.791C35.5789 48.8055 37.7808 50.6219 37.0719 51.5253C36.3521 52.4424 34.5937 51.8366 34.121 52.4388Z" fill="#EC0187"/>
<path d="M42.4579 41.2934C42.7445 40.9897 43.0671 41.0787 43.2978 41.3921C43.5552 41.7785 44.2192 43.0269 45.5161 44.8725C46.8136 46.7426 47.7284 47.7253 47.9851 48.0871C48.2039 48.4131 48.228 48.8186 47.9414 49.1223L47.2607 49.8437C46.9622 50.1601 46.556 50.1596 46.2298 49.9475C45.8418 49.7249 44.5292 48.6061 42.6114 47.4187L42.1608 47.161L42.4562 47.5832C43.753 49.4287 44.9343 50.6868 45.191 51.0486C45.4097 51.3746 45.4338 51.78 45.1472 52.0838L44.4666 52.8052C44.1681 53.1216 43.7619 53.1211 43.4357 52.909C43.0596 52.6738 42.0134 51.8303 40.083 50.6309C38.1653 49.4435 36.8684 48.8658 36.4796 48.6186C36.1534 48.4065 36.0457 48.0896 36.3323 47.7859L37.2876 46.7734C37.5741 46.4697 37.9803 46.4701 38.3065 46.6822C38.6826 46.9175 39.9996 48.1839 41.8548 49.3362C40.5966 47.5511 39.3274 46.234 39.0827 45.8596C38.852 45.5463 38.8279 45.1408 39.1145 44.837L39.6638 44.2549C39.9623 43.9385 40.3685 43.939 40.6947 44.151C41.0708 44.3863 42.4713 45.5641 44.3146 46.7291C43.0564 44.944 41.7156 43.7029 41.4589 43.3411C41.2402 43.0151 41.2161 42.6096 41.5026 42.3059L42.4579 41.2934Z" fill="#EC0187"/>
<path d="M46.2633 39.314C45.8057 40.1363 47.4927 40.3639 48.8978 40.1673C50.6774 39.8952 52.1241 39.8245 53.0227 40.8416C54.0941 42.0543 53.8458 43.8756 52.1061 45.2966C51.0951 46.0969 49.5583 46.8278 48.7058 45.8628C47.8072 44.8457 48.2276 43.4295 49.4532 43.345C50.3074 43.2869 52.0632 44.1968 52.3022 43.5213C52.5282 42.8573 50.6362 42.5553 49.3247 42.8317C47.5636 43.2035 46.2404 43.0723 45.3994 42.1204C44.3165 40.8947 44.6339 39.1516 46.316 37.6654C47.4635 36.6517 48.8638 36.1343 49.7048 37.0862C50.1887 37.6338 50.5348 38.814 49.8697 39.4015C48.9439 40.2195 46.7079 38.5033 46.2633 39.314Z" fill="#EC0187"/>
<path d="M56.4204 34.2143C56.1226 33.7856 55.9512 33.3963 55.9059 33.0464C55.8636 32.6804 55.9218 32.3575 56.0806 32.0777C56.2489 31.7914 56.4808 31.5456 56.7762 31.3405C57.0715 31.1354 57.378 31.0073 57.6956 30.9563C58.0132 30.9052 58.3361 30.9634 58.6643 31.131C58.9858 31.289 59.2955 31.5824 59.5932 32.0111C59.8843 32.4304 60.051 32.823 60.0934 33.189C60.1291 33.5455 60.0709 33.8684 59.9187 34.1577C59.7599 34.4374 59.5328 34.6798 59.2374 34.8849C58.942 35.09 58.6308 35.2214 58.3037 35.2791C57.9795 35.3207 57.6566 35.2624 57.335 35.1044C57.0164 34.9303 56.7115 34.6336 56.4204 34.2143Z" fill="#EC0187"/>
<path d="M70.3257 25.345C70.8491 26.3279 70.8258 27.5428 70.3278 28.4586C71.7569 29.5505 72.5151 29.9748 72.8486 30.2309C73.1667 30.4951 73.229 30.7971 72.8604 30.9934L71.601 31.664C71.2171 31.8685 70.7709 31.7709 70.4527 31.5067C70.1827 31.2957 69.6395 30.7569 68.6288 29.8955L67.9838 30.239L69.0551 32.2509C69.2351 32.5888 69.1745 32.9562 68.8059 33.1525L67.6847 33.7495C67.3008 33.9539 66.9774 33.791 66.7975 33.4531C66.5931 33.0692 66.1169 31.8048 65.0701 29.839C64.0314 27.8885 63.2481 26.7877 63.0355 26.3884C62.8556 26.0506 62.9008 25.6913 63.2848 25.4869L66.2489 23.9085C67.6772 23.1479 69.5324 23.8553 70.3257 25.345ZM65.4894 25.5548L67.4686 29.2714C68.3286 28.8135 68.616 27.5762 68.0762 26.5626C67.561 25.595 66.3576 25.1122 65.4894 25.5548Z" fill="#EC0187"/>
<path d="M77.1748 23.9105C78.4321 25.7919 79.3665 26.846 79.6202 27.21C79.837 27.533 79.7958 27.8737 79.4131 28.0407L78.185 28.5764C77.8023 28.7433 77.4288 28.5835 77.212 28.2605L76.4284 26.8558C76.1912 26.9213 75.9291 27.0167 75.626 27.1489C75.323 27.2811 75.0589 27.4153 74.8495 27.5446C75.1266 28.3539 75.3133 28.9559 75.346 29.0745C75.4353 29.4532 75.2984 29.8356 74.9156 30.0026L73.6876 30.5383C73.3048 30.7052 73.043 30.4967 72.9537 30.118C72.8596 29.6845 72.7066 28.2895 72.1989 26.0812C71.6821 23.8957 71.2102 22.6399 71.0931 22.1974C71.0039 21.8187 71.1408 21.4362 71.5235 21.2693L74.0912 20.1492C74.4899 19.9752 74.8474 20.142 75.0643 20.465C75.3249 20.8449 75.9244 22.0451 77.1748 23.9105ZM74.9373 25.57C75.1606 25.4726 75.3838 25.3752 75.5523 25.2827C74.5539 23.5162 73.6205 21.5505 73.2537 21.7105C72.9347 21.8496 73.6767 23.8988 74.2924 25.8323C74.4907 25.7648 74.6981 25.6744 74.9373 25.57Z" fill="#EC0187"/>
<path d="M83.6337 16.5936C84.0289 16.4587 84.2891 16.6824 84.3469 17.0672C84.4107 17.5234 84.4317 18.9319 84.7667 21.1525C85.1074 23.3896 85.4742 24.68 85.5324 25.1198C85.5902 25.5046 85.4387 25.8688 85.027 26.0093L82.3758 26.9141C81.9806 27.049 81.6216 26.859 81.4321 26.5192C81.2257 26.13 80.7271 24.8845 79.629 22.906C78.52 20.9495 77.692 19.8164 77.4636 19.4164C77.2741 19.0766 77.3267 18.7461 77.7384 18.6056L79.1711 18.1166C79.5663 17.9817 79.9253 18.1717 80.1148 18.5115C80.3268 18.9172 82.9768 25.5507 83.3556 25.4215C83.7179 25.2978 81.7594 18.4283 81.6957 17.972C81.6379 17.5873 81.7893 17.223 82.201 17.0825L83.6337 16.5936Z" fill="#EC0187"/>
<path d="M88.5469 16.3527C88.2603 16.4258 88.1686 16.7005 88.2503 17.0208L88.74 18.943C89.4313 18.7669 90.2443 18.4341 90.5983 18.3439C91.003 18.2408 91.1723 18.3413 91.2968 18.8303L91.5116 19.6734C91.6319 20.1455 91.5357 20.3316 91.131 20.4347C90.7769 20.5249 89.9038 20.6216 89.2082 20.7809L89.6936 22.6862C89.7881 23.0572 89.9963 23.3812 90.3167 23.2996C91.0586 23.1106 91.2192 21.2741 92.3489 20.9863C93.4617 20.7028 94.2293 23.434 93.0153 23.7433L88.2942 24.946C87.8726 25.0534 87.5973 24.8183 87.5028 24.4474C87.3954 24.0258 87.2332 22.6846 86.6834 20.5263C86.1379 18.385 85.6385 17.1296 85.5268 16.6912C85.4323 16.3203 85.5616 15.9821 85.9832 15.8747L90.7043 14.6719C91.9183 14.3627 92.5553 17.1451 91.4425 17.4286C90.3128 17.7164 89.2888 16.1637 88.5469 16.3527Z" fill="#EC0187"/>
<path d="M104.47 15.5798C104.611 16.6844 104.159 17.8123 103.368 18.4921C104.318 20.0196 104.877 20.6849 105.098 21.0426C105.302 21.4024 105.253 21.7069 104.839 21.7598L103.423 21.9408C102.992 21.9959 102.609 21.7467 102.405 21.3868C102.228 21.0938 101.911 20.3976 101.271 19.234L100.546 19.3266L100.835 21.5876C100.883 21.9673 100.696 22.2894 100.282 22.3424L99.0223 22.5034C98.5908 22.5586 98.3462 22.2917 98.2977 21.912C98.2425 21.4805 98.2452 20.1295 97.9627 17.9203C97.6825 15.7283 97.34 14.4214 97.2826 13.9727C97.2341 13.593 97.4037 13.2731 97.8352 13.2179L101.166 12.7921C102.771 12.5869 104.256 13.9057 104.47 15.5798ZM99.8727 14.0625L100.407 18.2393C101.373 18.1157 102.08 17.0606 101.935 15.9214C101.796 14.8341 100.841 13.9562 99.8727 14.0625Z" fill="#EC0187"/>
<path d="M108.502 13.2155C108.207 13.2304 108.062 13.4815 108.079 13.8117L108.178 15.7928C108.891 15.757 109.754 15.5917 110.119 15.5734C110.536 15.5525 110.682 15.6845 110.707 16.1885L110.751 17.0574C110.775 17.5439 110.644 17.7073 110.227 17.7283C109.862 17.7466 108.987 17.6686 108.274 17.687L108.372 19.6507C108.391 20.033 108.531 20.3918 108.861 20.3752C109.626 20.3368 110.147 18.5685 111.311 18.51C112.458 18.4525 112.67 21.2816 111.419 21.3444L106.553 21.5887C106.119 21.6105 105.895 21.3255 105.876 20.9432C105.854 20.5088 105.961 19.162 105.849 16.9376C105.738 14.7306 105.497 13.4012 105.475 12.9494C105.456 12.5671 105.649 12.2612 106.084 12.2394L110.949 11.9951C112.201 11.9323 112.274 14.7857 111.127 14.8433C109.963 14.9018 109.267 13.1771 108.502 13.2155Z" fill="#EC0187"/>
<path d="M119.615 12.0651C120.032 12.0764 120.198 12.3768 120.118 12.7576C120.019 13.2075 119.548 14.535 119.089 16.7331C118.629 18.9486 118.523 20.286 118.425 20.7185C118.345 21.0993 118.076 21.3879 117.641 21.3761L114.841 21.3001C114.423 21.2887 114.153 20.9855 114.094 20.6009C114.036 20.1642 114.002 18.823 113.662 16.5858C113.304 14.3655 112.923 13.0148 112.848 12.5603C112.789 12.1757 112.953 11.8843 113.388 11.8961L114.901 11.9371C115.319 11.9485 115.589 12.2517 115.648 12.6363C115.706 13.0904 115.879 20.2316 116.279 20.2425C116.662 20.2529 117.219 13.1315 117.318 12.6816C117.398 12.3008 117.667 12.0122 118.102 12.024L119.615 12.0651Z" fill="#EC0187"/>
<path d="M122.86 12.3124C123.276 12.3478 123.477 12.6617 123.444 13.0431C123.406 13.4939 123.101 14.8126 122.914 17.0145C122.725 19.2336 122.803 20.5848 122.766 21.0182C122.733 21.3997 122.483 21.6752 122.067 21.6398L120.801 21.5322C120.368 21.4953 120.185 21.1829 120.217 20.8015C120.254 20.368 120.541 19.0478 120.73 16.8287C120.917 14.6268 120.857 13.2771 120.896 12.8264C120.928 12.4449 121.161 12.1679 121.594 12.2048L122.86 12.3124Z" fill="#EC0187"/>
<path d="M128.137 13.9933C127.844 13.9512 127.655 14.1701 127.608 14.4974L127.326 16.4608C128.032 16.5622 128.911 16.5652 129.272 16.6171C129.686 16.6764 129.804 16.8339 129.732 17.3334L129.609 18.1946C129.539 18.6768 129.379 18.8121 128.966 18.7528C128.604 18.7009 127.76 18.4567 127.057 18.3382L126.777 20.2844C126.723 20.6634 126.792 21.0423 127.119 21.0893C127.877 21.198 128.727 19.5622 129.881 19.7278C131.018 19.8909 130.684 22.7082 129.444 22.5302L124.621 21.8383C124.19 21.7765 124.026 21.454 124.08 21.0751C124.142 20.6445 124.504 19.343 124.821 17.1385C125.135 14.9511 125.153 13.6002 125.217 13.1524C125.271 12.7734 125.52 12.5103 125.951 12.5721L130.773 13.2641C132.013 13.442 131.539 16.2567 130.402 16.0936C129.248 15.9281 128.895 14.102 128.137 13.9933Z" fill="#EC0187"/>
<path d="M141.938 15.6613C142.344 15.7582 142.428 16.0823 142.271 16.4385C142.065 16.8543 141.314 18.0525 140.361 20.0969C139.387 22.1542 138.991 23.4372 138.806 23.8401C138.632 24.1923 138.293 24.4154 137.887 24.3184L136.922 24.0882C136.499 23.9873 136.297 23.6349 136.318 23.2464C136.317 22.7991 136.632 21.1034 136.705 18.8489L136.704 18.3299L136.485 18.7964C135.532 20.8409 135.031 22.4922 134.845 22.8951C134.672 23.2472 134.332 23.4703 133.926 23.3734L132.961 23.1432C132.538 23.0422 132.336 22.6899 132.357 22.3014C132.374 21.8581 132.583 20.5307 132.66 18.2593C132.733 16.0049 132.587 14.5927 132.607 14.1324C132.628 13.7439 132.849 13.4926 133.256 13.5895L134.61 13.9126C135.016 14.0095 135.218 14.3618 135.197 14.7503C135.18 15.1936 134.739 16.9667 134.666 19.1494C135.586 17.1686 136.094 15.4117 136.297 15.0128C136.453 14.6567 136.793 14.4335 137.199 14.5305L137.978 14.7162C138.401 14.8172 138.603 15.1696 138.582 15.558C138.565 16.0014 138.243 17.8027 138.152 19.9813C139.072 18.0006 139.479 16.2194 139.665 15.8165C139.838 15.4644 140.178 15.2413 140.584 15.3382L141.938 15.6613Z" fill="#EC0187"/>
<path d="M145.337 17.9152C144.396 17.9285 145.04 19.5043 145.911 20.6242C147.034 22.0311 147.817 23.2498 147.383 24.5359C146.866 26.0693 145.164 26.7623 143.064 25.9629C141.867 25.4857 140.467 24.518 140.878 23.2979C141.312 22.0118 142.749 21.67 143.433 22.6903C143.909 23.4017 143.996 25.3773 144.701 25.2476C145.389 25.1124 144.708 23.3218 143.814 22.3229C142.614 20.9818 142.067 19.7694 142.473 18.5658C142.996 17.0159 144.665 16.4218 146.792 17.1387C148.243 17.6278 149.39 18.5836 148.984 19.7873C148.75 20.4798 147.9 21.3683 147.059 21.0848C145.888 20.6902 146.261 17.8963 145.337 17.9152Z" fill="#EC0187"/>
<path d="M154.551 24.0557C154.774 23.5836 155.026 23.2407 155.306 23.0268C155.602 22.8074 155.911 22.6967 156.233 22.6946C156.565 22.6975 156.894 22.7757 157.219 22.9292C157.544 23.0828 157.808 23.2844 158.011 23.5341C158.214 23.7838 158.324 24.0926 158.343 24.4606C158.367 24.8181 158.267 25.2329 158.044 25.7049C157.826 26.1664 157.569 26.5069 157.273 26.7263C156.982 26.9352 156.673 27.046 156.347 27.0585C156.025 27.0606 155.702 26.9848 155.376 26.8313C155.051 26.6778 154.782 26.4737 154.569 26.219C154.371 25.9589 154.26 25.65 154.236 25.2925C154.228 24.9295 154.333 24.5172 154.551 24.0557Z" fill="#EC0187"/>
<path d="M169.238 31.702C168.647 32.6459 167.582 33.2317 166.54 33.2567C166.307 35.0401 166.317 35.9088 166.261 36.3256C166.191 36.7331 165.96 36.9377 165.606 36.7161L164.397 35.959C164.028 35.7282 163.89 35.2929 163.961 34.8853C164.009 34.546 164.205 33.8065 164.447 32.5009L163.828 32.1131L162.618 34.0452C162.415 34.3696 162.067 34.5003 161.713 34.2787L160.636 33.6048C160.267 33.374 160.247 33.0124 160.45 32.688C160.681 32.3193 161.54 31.276 162.721 29.3882C163.894 27.5151 164.457 26.2872 164.697 25.9037C164.901 25.5793 165.234 25.4393 165.603 25.6702L168.45 27.452C169.821 28.3106 170.133 30.2714 169.238 31.702ZM166.644 27.6149L164.41 31.184C165.236 31.701 166.451 31.333 167.061 30.3596C167.642 29.4305 167.461 28.1466 166.644 27.6149Z" fill="#EC0187"/>
<path d="M174.367 37.2684C173.358 39.294 172.907 40.6284 172.717 41.0293C172.544 41.378 172.228 41.5114 171.893 41.262L170.818 40.4621C170.483 40.2127 170.436 39.8092 170.609 39.4606L171.439 38.083C171.265 37.9096 171.052 37.7294 170.787 37.532C170.521 37.3347 170.274 37.172 170.058 37.0545C169.493 37.6969 169.063 38.1578 168.976 38.2451C168.692 38.5106 168.292 38.5817 167.957 38.3323L166.882 37.5324C166.547 37.2831 166.598 36.9523 166.882 36.6868C167.212 36.3898 168.347 35.5643 170.012 34.0271C171.652 32.4934 172.508 31.4602 172.834 31.1388C173.118 30.8733 173.518 30.8022 173.853 31.0516L176.1 32.7242C176.449 32.9839 176.482 33.377 176.309 33.7256C176.109 34.1405 175.365 35.2568 174.367 37.2684ZM171.815 36.1502C172.011 36.2957 172.206 36.4411 172.37 36.5414C173.407 34.7976 174.65 33.0114 174.329 32.7724C174.05 32.5646 172.64 34.2263 171.267 35.7207C171.424 35.8593 171.606 35.9944 171.815 36.1502Z" fill="#EC0187"/>
<path d="M183.738 39.0861C184.052 39.3614 183.988 39.6986 183.683 39.9405C183.32 40.2232 182.109 40.9437 180.351 42.3411C178.582 43.7517 177.646 44.7131 177.294 44.9828C176.989 45.2247 176.598 45.2749 176.271 44.9881L174.165 43.141C173.851 42.8656 173.837 42.4597 174.037 42.126C174.271 41.7531 175.102 40.6999 176.27 38.7616C177.413 36.8249 177.982 35.5423 178.215 35.1448C178.415 34.8111 178.728 34.692 179.055 34.9788L180.193 35.977C180.507 36.2523 180.522 36.6583 180.321 36.9919C180.075 37.3779 175.646 42.9823 175.947 43.2462C176.235 43.4986 181.214 38.3761 181.577 38.0933C181.882 37.8514 182.273 37.8011 182.6 38.088L183.738 39.0861Z" fill="#EC0187"/>
<path d="M186.13 42.9587C185.923 42.7472 185.639 42.8057 185.403 43.0369L183.985 44.4241C184.484 44.934 185.18 45.4707 185.435 45.7318C185.727 46.0303 185.725 46.2272 185.365 46.5801L184.743 47.1885C184.394 47.5292 184.185 47.5392 183.893 47.2408C183.638 46.9796 183.116 46.2726 182.63 45.7505L181.224 47.1255C180.951 47.3933 180.775 47.7359 181.006 47.9722C181.541 48.5194 183.211 47.7378 184.026 48.5711C184.829 49.3919 182.851 51.4251 181.975 50.5297L178.568 47.0474C178.263 46.7364 178.329 46.3803 178.602 46.1126C178.913 45.8084 179.993 44.9958 181.584 43.4382C183.164 41.8928 184 40.8314 184.323 40.515C184.597 40.2473 184.954 40.1897 185.259 40.5006L188.666 43.9829C189.542 44.8784 187.454 46.8243 186.651 46.0035C185.835 45.1702 186.665 43.5059 186.13 42.9587Z" fill="#EC0187"/>
<path d="M194.699 56.2043C193.815 56.8821 192.613 57.0589 191.628 56.7181C190.785 58.3073 190.492 59.1249 190.294 59.496C190.085 59.8532 189.798 59.9643 189.544 59.6329L188.675 58.501C188.41 58.1558 188.433 57.6997 188.642 57.3424C188.805 57.0413 189.247 56.417 189.931 55.2785L189.486 54.6987L187.678 56.0862C187.374 56.3192 187.002 56.3198 186.747 55.9885L185.974 54.9807C185.709 54.6356 185.817 54.2899 186.121 54.0569C186.466 53.7921 187.635 53.1146 189.402 51.7589C191.155 50.4138 192.112 49.4602 192.471 49.1848C192.775 48.9518 193.136 48.9374 193.401 49.2825L195.445 51.9468C196.43 53.2307 196.038 55.1769 194.699 56.2043ZM193.697 51.4683L190.356 54.0314C190.949 54.8045 192.217 54.8846 193.128 54.1856C193.997 53.5183 194.276 52.252 193.697 51.4683Z" fill="#EC0187"/>
<path d="M198.746 58.4444C198.585 58.1966 198.295 58.1984 198.018 58.3789L196.357 59.4621C196.746 60.0597 197.323 60.722 197.523 61.0281C197.751 61.378 197.71 61.5706 197.288 61.8461L196.559 62.3212C196.151 62.5873 195.943 62.5562 195.715 62.2063C195.516 61.9002 195.143 61.1049 194.768 60.4977L193.121 61.5714C192.8 61.7804 192.56 62.082 192.741 62.359C193.159 63.0003 194.949 62.5604 195.586 63.537C196.213 64.499 193.875 66.1061 193.191 65.0566L190.53 60.9752C190.293 60.6107 190.427 60.2743 190.747 60.0653C191.112 59.8277 192.329 59.2419 194.195 58.0257C196.046 56.819 197.074 55.9416 197.453 55.6946C197.773 55.4856 198.135 55.4989 198.373 55.8634L201.033 59.9448C201.717 60.9943 199.289 62.4942 198.661 61.5322C198.025 60.5555 199.165 59.0857 198.746 58.4444Z" fill="#EC0187"/>
<path d="M205.412 67.5975C205.613 67.9639 205.437 68.2585 205.067 68.3811C204.629 68.5218 203.245 68.7829 201.114 69.492C198.968 70.2094 197.759 70.7911 197.335 70.9235C196.966 71.0461 196.581 70.959 196.373 70.5774L195.029 68.1195C194.828 67.7531 194.954 67.3669 195.257 67.1222C195.605 66.8524 196.747 66.1486 198.509 64.7289C200.248 63.3023 201.223 62.2931 201.578 61.9997C201.88 61.755 202.215 61.7505 202.424 62.1321L203.15 63.4603C203.35 63.8267 203.224 64.2129 202.922 64.4576C202.558 64.7357 196.474 68.479 196.667 68.8301C196.85 69.166 203.285 66.0639 203.723 65.9232C204.093 65.8006 204.477 65.8877 204.686 66.2693L205.412 67.5975Z" fill="#EC0187"/>
<path d="M206.878 70.6492C207.056 71.0269 206.885 71.3577 206.539 71.5211C206.13 71.7143 204.837 72.1132 202.838 73.0567C200.824 74.0076 199.695 74.7527 199.301 74.9385C198.955 75.1019 198.591 75.0237 198.413 74.646L197.87 73.4974C197.685 73.1041 197.863 72.789 198.209 72.6256C198.602 72.4398 199.888 72.0251 201.902 71.0742C203.901 70.1307 205.038 69.4014 205.447 69.2082C205.793 69.0448 206.15 69.1073 206.335 69.5007L206.878 70.6492Z" fill="#EC0187"/>
<path d="M207.894 75.6469C207.783 75.3728 207.498 75.3192 207.192 75.4434L205.354 76.1887C205.622 76.8498 206.062 77.6103 206.199 77.9489C206.356 78.3359 206.279 78.5172 205.811 78.7068L205.005 79.0337C204.554 79.2168 204.356 79.1466 204.199 78.7596C204.062 78.421 203.848 77.569 203.596 76.9013L201.774 77.6401C201.419 77.7839 201.126 78.0341 201.251 78.3405C201.538 79.05 203.38 78.9606 203.818 80.0409C204.249 81.1052 201.647 82.2353 201.176 81.0743L199.346 76.5594C199.182 76.1563 199.378 75.8516 199.733 75.7078C200.136 75.5443 201.443 75.2022 203.507 74.3654C205.555 73.5351 206.731 72.8704 207.15 72.7004C207.505 72.5566 207.857 72.6389 208.021 73.0421L209.851 77.557C210.322 78.718 207.651 79.7257 207.22 78.6615C206.782 77.5811 208.182 76.3564 207.894 75.6469Z" fill="#EC0187"/>
<path d="M213.487 88.7215C213.607 89.1216 213.369 89.3565 212.982 89.3997C212.519 89.4296 211.105 89.3808 208.859 89.5818C206.59 89.7711 205.282 90.0723 204.84 90.1138C204.449 90.1404 204.085 89.9586 203.965 89.5586L203.681 88.6086C203.556 88.1919 203.759 87.8403 204.106 87.6637C204.493 87.4388 206.118 86.861 208.105 85.7934L208.553 85.5318L208.04 85.5767C205.793 85.7776 204.113 86.1721 203.672 86.2136C203.28 86.2402 202.917 86.0584 202.797 85.6584L202.512 84.7084C202.387 84.2917 202.591 83.9401 202.937 83.7635C203.329 83.5553 204.582 83.0707 206.586 81.998C208.573 80.9304 209.721 80.0957 210.13 79.8825C210.477 79.706 210.805 79.7711 210.925 80.1711L211.324 81.5045C211.444 81.9045 211.241 82.2561 210.894 82.4327C210.502 82.6409 208.747 83.1487 206.822 84.1797C208.997 83.982 210.772 83.5409 211.219 83.5161C211.605 83.4729 211.969 83.6546 212.089 84.0546L212.318 84.8213C212.443 85.238 212.24 85.5896 211.893 85.7662C211.501 85.9744 209.781 86.5988 207.851 87.6132C210.026 87.4155 211.771 86.8744 212.213 86.8329C212.604 86.8064 212.968 86.9881 213.087 87.3881L213.487 88.7215Z" fill="#EC0187"/>
<path d="M213.271 92.9704C212.787 92.1629 211.747 93.5101 211.214 94.8252C210.56 96.5023 209.898 97.7905 208.568 98.06C206.982 98.3814 205.528 97.2556 205.168 95.0384C204.98 93.7627 205.116 92.0664 206.378 91.8107C207.708 91.5411 208.724 92.6134 208.185 93.717C207.808 94.4858 206.142 95.5512 206.607 96.096C207.069 96.6238 208.277 95.1363 208.693 93.8625C209.252 92.1514 210.027 91.0711 211.272 90.8189C212.875 90.494 214.226 91.6406 214.672 93.8405C214.976 95.3411 214.724 96.8125 213.479 97.0648C212.763 97.2099 211.568 96.9195 211.391 96.0498C211.146 94.839 213.75 93.7609 213.271 92.9704Z" fill="#EC0187"/>
<path d="M212.542 103.912C213.062 103.868 213.485 103.913 213.811 104.049C214.149 104.194 214.4 104.406 214.563 104.683C214.727 104.972 214.825 105.295 214.855 105.654C214.886 106.012 214.844 106.341 214.73 106.642C214.616 106.943 214.404 107.194 214.095 107.395C213.798 107.595 213.389 107.717 212.869 107.761C212.361 107.804 211.937 107.753 211.599 107.607C211.272 107.46 211.021 107.249 210.846 106.973C210.683 106.695 210.586 106.378 210.556 106.019C210.525 105.661 210.567 105.326 210.68 105.013C210.805 104.712 211.017 104.461 211.314 104.261C211.624 104.072 212.033 103.955 212.542 103.912Z" fill="#EC0187"/>
<path d="M115.328 96.8052L115.328 130.805M115.328 130.805C115.328 126.596 118.419 118.178 130.782 118.178M115.328 130.805C115.025 126.596 111.691 118.178 100.782 118.178" stroke="#91D7E1" stroke-width="2.66753" stroke-linejoin="round"/>
</g>
<defs>
<clipPath id="clip0_308_1532">
<rect width="230" height="229" fill="white"/>
</clipPath>
</defs>
</svg>
