<svg width="118" height="205" viewBox="0 0 118 205" fill="none" xmlns="http://www.w3.org/2000/svg">
<g clip-path="url(#clip0_236_5)">
<path d="M102.497 0.186595C159.056 0.486895 204.663 46.581 204.363 103.14C204.062 159.699 157.968 205.306 101.409 205.006C44.85 204.705 -0.75681 158.611 -0.45641 102.052C-0.15611 45.493 45.938 -0.113805 102.497 0.186595Z" fill="white"/>
<path d="M117.818 182.847C118.569 182.438 117.384 181.445 116.209 180.914C114.711 180.26 113.566 179.612 113.369 178.395C113.134 176.945 114.209 175.666 116.234 175.419C117.398 175.295 118.933 175.479 119.12 176.634C119.316 177.85 118.306 178.734 117.324 178.204C116.64 177.835 115.733 176.284 115.222 176.687C114.726 177.087 116.033 178.237 117.174 178.661C118.707 179.23 119.659 179.972 119.843 181.111C120.08 182.578 118.991 183.762 116.978 184.088C115.605 184.309 114.279 184.028 114.095 182.889C113.989 182.233 114.296 181.159 115.092 181.031C116.199 180.852 117.084 183.254 117.818 182.847Z" fill="#EC0187"/>
<path d="M107.743 185.989C106.183 186.107 106.375 183.002 107.478 182.918C108.55 182.837 108.424 184.939 109.275 184.874C109.275 184.874 109.322 183.191 109.202 181.615C109.049 179.598 108.784 178.398 108.754 178.004C108.728 177.657 108.913 177.374 109.291 177.345L110.441 177.258C110.835 177.228 111.045 177.481 111.071 177.828C111.101 178.222 111.035 179.447 111.188 181.465C111.307 183.04 111.591 184.699 111.591 184.699C112.458 184.633 112.017 182.575 113.073 182.495C114.176 182.411 114.85 185.451 113.274 185.57L107.743 185.989Z" fill="#EC0187"/>
<path d="M102.61 187.127C100.303 187.09 99.046 185.617 99.091 182.725C99.137 179.833 100.44 178.399 102.747 178.436C105.054 178.472 106.311 179.946 106.265 182.838C106.22 185.729 104.917 187.163 102.61 187.127ZM102.735 179.178C102.103 179.168 101.736 180.364 101.699 182.766C101.661 185.168 101.99 186.374 102.622 186.384C103.238 186.394 103.604 185.198 103.642 182.796C103.68 180.394 103.351 179.188 102.735 179.178Z" fill="#EC0187"/>
<path d="M92.604 183.431C92.708 182.425 93.341 181.522 94.181 181.084C93.658 179.536 93.302 178.832 93.18 178.47C93.075 178.11 93.181 177.851 93.558 177.89L94.847 178.023C95.24 178.064 95.527 178.363 95.633 178.724C95.729 179.02 95.865 179.701 96.19 180.863L96.85 180.931L97.063 178.872C97.099 178.526 97.331 178.28 97.708 178.319L98.856 178.437C99.249 178.478 99.41 178.765 99.374 179.111C99.333 179.504 99.051 180.698 98.843 182.71C98.637 184.706 98.669 185.933 98.626 186.342C98.591 186.688 98.374 186.935 97.981 186.895L94.947 186.581C93.485 186.43 92.446 184.956 92.604 183.431ZM96.355 185.726L96.748 181.921C95.867 181.83 95.024 182.617 94.916 183.654C94.814 184.645 95.476 185.619 96.355 185.726Z" fill="#EC0187"/>
<path d="M85.349 186.1C84.696 185.979 84.76 185.46 84.96 185.16C85.206 184.788 87.77 181.18 88.024 180.761C88.088 180.676 88.137 180.588 88.185 180.501C88.316 179.529 88.351 178.908 88.4 178.644C88.463 178.302 88.714 178.076 89.087 178.145L90.237 178.357C90.61 178.426 90.747 178.725 90.684 179.067C90.635 179.331 90.461 179.926 90.236 180.881L90.278 181.178C90.365 181.66 91.484 185.949 91.58 186.385C91.66 186.737 91.518 187.241 90.881 187.123L89.778 186.919C89.405 186.85 89.143 186.529 89.066 186.161C88.987 185.809 89.401 182.526 88.888 182.431C88.391 182.339 87.588 185.55 87.388 185.85C87.185 186.166 86.825 186.373 86.452 186.304L85.349 186.1Z" fill="#EC0187"/>
<path d="M80.372 182.515C80.232 182.968 80.05 183.308 79.825 183.537C79.587 183.772 79.323 183.911 79.034 183.954C78.735 183.994 78.43 183.966 78.118 183.869C77.806 183.773 77.542 183.626 77.328 183.427C77.114 183.228 76.975 182.965 76.911 182.636C76.844 182.318 76.88 181.932 77.02 181.479C77.157 181.036 77.344 180.697 77.582 180.462C77.817 180.237 78.081 180.098 78.373 180.045C78.662 180.002 78.962 180.028 79.274 180.125C79.586 180.221 79.855 180.37 80.079 180.572C80.29 180.78 80.429 181.044 80.497 181.362C80.55 181.688 80.509 182.072 80.372 182.515Z" fill="#EC0187"/>
<path d="M67.688 182.491C65.582 181.548 65.007 179.698 66.189 177.058C67.37 174.418 69.133 173.614 71.239 174.557C73.345 175.499 73.919 177.35 72.738 179.989C71.556 182.629 69.794 183.433 67.688 182.491ZM70.935 175.235C70.358 174.977 69.55 175.931 68.569 178.123C67.588 180.316 67.414 181.554 67.991 181.813C68.554 182.064 69.362 181.11 70.343 178.918C71.325 176.725 71.498 175.487 70.935 175.235Z" fill="#EC0187"/>
<path d="M58.613 177.75C58.267 177.559 58.218 177.224 58.386 176.92C58.586 176.561 59.749 174.82 60.837 172.858C61.673 171.351 63.592 170.789 65.085 171.617C66.592 172.452 67.118 174.37 66.283 175.877C65.195 177.84 64.335 179.748 64.136 180.108C63.967 180.412 63.658 180.547 63.312 180.356L62.151 179.712C61.805 179.52 61.756 179.186 61.925 178.882C62.124 178.522 62.299 178.24 63.418 176.547C63.758 176.031 65.597 173.039 64.602 172.488C63.607 171.936 62.044 175.081 61.787 175.643C60.944 177.489 60.797 177.787 60.598 178.146C60.429 178.45 60.119 178.585 59.774 178.394L58.613 177.75Z" fill="#EC0187"/>
<path d="M53.501 172.198C54.059 171.355 55.04 170.848 55.987 170.849C56.24 169.235 56.251 168.446 56.311 168.069C56.385 167.701 56.599 167.52 56.915 167.73L57.995 168.445C58.325 168.664 58.44 169.062 58.367 169.431C58.315 169.738 58.12 170.404 57.869 171.584L58.423 171.951L59.566 170.225C59.758 169.935 60.077 169.824 60.394 170.034L61.355 170.671C61.685 170.889 61.695 171.218 61.503 171.507C61.284 171.837 60.481 172.764 59.364 174.451C58.256 176.124 57.715 177.226 57.488 177.568C57.296 177.858 56.99 177.978 56.661 177.759L54.118 176.075C52.892 175.264 52.654 173.476 53.501 172.198ZM55.761 175.969L57.873 172.781C57.135 172.292 56.023 172.598 55.447 173.468C54.897 174.298 55.032 175.468 55.761 175.969Z" fill="#EC0187"/>
<path d="M46.747 169.305C47.543 169.615 47.539 168.069 47.187 166.829C46.722 165.262 46.478 163.969 47.282 163.034C48.24 161.92 49.91 161.917 51.404 163.306C52.25 164.116 53.098 165.408 52.336 166.295C51.532 167.23 50.206 167.027 49.978 165.935C49.819 165.174 50.42 163.481 49.783 163.35C49.157 163.229 49.12 164.969 49.532 166.114C50.085 167.653 50.131 168.86 49.379 169.734C48.41 170.861 46.803 170.792 45.257 169.463C44.202 168.556 43.563 167.36 44.315 166.485C44.748 165.982 45.766 165.524 46.378 166.05C47.229 166.781 45.962 169.006 46.747 169.305Z" fill="#EC0187"/>
<path d="M38.201 162.617C37.104 161.501 39.602 159.646 40.377 160.435C41.13 161.201 39.443 162.46 40.041 163.069C40.041 163.069 41.358 162.019 42.485 160.912C43.928 159.494 44.675 158.518 44.957 158.241C45.205 157.997 45.54 157.955 45.806 158.226L46.614 159.049C46.891 159.331 46.833 159.655 46.584 159.898C46.303 160.175 45.324 160.915 43.88 162.333C42.753 163.44 41.669 164.727 41.669 164.727C42.278 165.347 43.567 163.682 44.309 164.437C45.084 165.227 43.195 167.702 42.088 166.574L38.201 162.617Z" fill="#EC0187"/>
<path d="M34.613 158.636C33.148 156.853 33.459 154.941 35.693 153.105C37.928 151.269 39.864 151.335 41.329 153.117C42.794 154.9 42.483 156.812 40.248 158.648C38.014 160.484 36.078 160.418 34.613 158.636ZM40.755 153.589C40.354 153.101 39.205 153.594 37.349 155.119C35.493 156.645 34.786 157.676 35.187 158.164C35.578 158.64 36.727 158.146 38.583 156.621C40.439 155.096 41.146 154.065 40.755 153.589Z" fill="#EC0187"/>
<path d="M30.493 147.999C31.329 147.429 32.428 147.329 33.304 147.687C34.148 146.288 34.455 145.562 34.653 145.235C34.86 144.922 35.127 144.835 35.34 145.149L36.071 146.219C36.294 146.545 36.25 146.958 36.043 147.271C35.88 147.536 35.447 148.08 34.77 149.078L35.145 149.626L36.854 148.459C37.141 148.263 37.479 148.281 37.693 148.594L38.344 149.547C38.566 149.873 38.451 150.182 38.164 150.378C37.838 150.6 36.744 151.156 35.073 152.297C33.416 153.428 32.5 154.245 32.16 154.477C31.873 154.673 31.545 154.668 31.322 154.341L29.602 151.822C28.773 150.609 29.227 148.863 30.493 147.999ZM31.164 152.344L34.322 150.188C33.823 149.457 32.678 149.321 31.816 149.909C30.994 150.47 30.678 151.605 31.164 152.344Z" fill="#EC0187"/>
<path d="M24.455 143.392C24.126 142.815 24.564 142.53 24.923 142.489C25.366 142.436 29.776 142.068 30.261 141.992C30.367 141.986 30.465 141.966 30.563 141.947C31.39 141.42 31.887 141.046 32.12 140.913C32.422 140.741 32.757 140.786 32.945 141.116L33.524 142.132C33.712 142.461 33.573 142.759 33.271 142.931C33.037 143.064 32.471 143.315 31.596 143.759L31.396 143.982C31.084 144.36 28.528 147.982 28.258 148.337C28.04 148.625 27.563 148.842 27.242 148.279L26.686 147.305C26.499 146.975 26.575 146.567 26.807 146.272C27.025 145.984 29.8 144.183 29.542 143.73C29.291 143.29 26.32 144.748 25.961 144.789C25.589 144.838 25.199 144.696 25.011 144.367L24.455 143.392Z" fill="#EC0187"/>
<path d="M24.738 136.556C24.301 136.741 23.923 136.821 23.603 136.796C23.27 136.765 22.994 136.653 22.775 136.459C22.552 136.256 22.377 136.004 22.249 135.704C22.122 135.403 22.066 135.106 22.08 134.815C22.094 134.523 22.206 134.247 22.416 133.986C22.616 133.73 22.935 133.509 23.372 133.325C23.799 133.144 24.179 133.069 24.512 133.1C24.836 133.135 25.112 133.247 25.34 133.436C25.559 133.63 25.732 133.877 25.86 134.178C25.987 134.479 26.045 134.78 26.036 135.081C26.012 135.377 25.9 135.653 25.699 135.91C25.485 136.16 25.165 136.376 24.738 136.556Z" fill="#EC0187"/>
<path d="M18.481 126.248C17.845 124.03 18.89 122.399 21.67 121.602C24.45 120.804 26.2 121.634 26.836 123.852C27.472 126.07 26.427 127.701 23.647 128.499C20.867 129.296 19.117 128.466 18.481 126.248ZM26.122 124.057C25.948 123.449 24.698 123.446 22.388 124.108C20.079 124.77 19.021 125.435 19.195 126.043C19.365 126.636 20.615 126.639 22.924 125.977C25.233 125.315 26.292 124.649 26.122 124.057Z" fill="#EC0187"/>
<path d="M16.239 116.21C16.163 115.822 16.387 115.569 16.728 115.502C17.132 115.423 19.212 115.192 21.414 114.76C23.105 114.429 24.771 115.536 25.099 117.211C25.431 118.901 24.303 120.54 22.612 120.871C20.41 121.303 18.396 121.874 17.993 121.953C17.652 122.02 17.349 121.87 17.273 121.483L17.017 120.18C16.941 119.792 17.165 119.539 17.507 119.472C17.91 119.393 18.238 119.345 20.254 119.111C20.868 119.039 24.341 118.519 24.122 117.402C23.904 116.286 20.491 117.116 19.895 117.281C17.941 117.825 17.618 117.904 17.215 117.983C16.874 118.05 16.57 117.9 16.494 117.512L16.239 116.21Z" fill="#EC0187"/>
<path d="M19.158 108.329C20.163 108.216 21.181 108.642 21.788 109.369C23.188 108.527 23.8 108.028 24.127 107.832C24.457 107.652 24.733 107.701 24.775 108.077L24.92 109.365C24.965 109.758 24.733 110.102 24.404 110.282C24.135 110.44 23.499 110.718 22.433 111.284L22.508 111.943L24.565 111.711C24.91 111.672 25.2 111.846 25.243 112.223L25.372 113.37C25.416 113.762 25.171 113.981 24.825 114.02C24.433 114.064 23.206 114.044 21.196 114.27C19.201 114.495 18.01 114.789 17.601 114.835C17.256 114.874 16.968 114.715 16.923 114.323L16.581 111.292C16.417 109.831 17.634 108.501 19.158 108.329ZM17.718 112.484L21.518 112.055C21.419 111.176 20.47 110.519 19.434 110.636C18.444 110.748 17.634 111.603 17.718 112.484Z" fill="#EC0187"/>
<path d="M17.022 101.765C17.3 102.573 18.478 101.571 19.198 100.503C20.094 99.135 20.925 98.115 22.157 98.126C23.627 98.138 24.707 99.411 24.611 101.449C24.538 102.618 24.098 104.1 22.929 104.09C21.696 104.08 20.995 102.936 21.682 102.057C22.161 101.444 23.842 100.811 23.53 100.239C23.219 99.683 21.866 100.778 21.257 101.832C20.439 103.247 19.547 104.062 18.393 104.052C16.908 104.04 15.923 102.767 15.94 100.728C15.952 99.338 16.452 98.077 17.606 98.087C18.27 98.093 19.277 98.575 19.27 99.381C19.261 100.503 16.744 100.972 17.022 101.765Z" fill="#EC0187"/>
<path d="M17.582 91.213C17.726 89.655 20.755 90.363 20.654 91.465C20.555 92.535 18.504 92.06 18.425 92.91C18.425 92.91 20.077 93.237 21.651 93.382C23.665 93.568 24.893 93.507 25.286 93.544C25.633 93.576 25.881 93.805 25.846 94.183L25.74 95.331C25.704 95.725 25.419 95.889 25.073 95.857C24.679 95.821 23.482 95.551 21.468 95.365C19.894 95.22 18.211 95.223 18.211 95.223C18.131 96.089 20.235 95.997 20.137 97.052C20.036 98.153 16.926 98.31 17.072 96.737L17.582 91.213Z" fill="#EC0187"/>
<path d="M19.256 86.212C19.676 83.944 21.339 82.949 24.182 83.476C27.026 84.002 28.223 85.525 27.803 87.794C27.383 90.063 25.721 91.057 22.877 90.531C20.033 90.005 18.836 88.481 19.256 86.212ZM27.073 87.659C27.188 87.037 26.07 86.477 23.708 86.04C21.346 85.603 20.102 85.726 19.987 86.348C19.874 86.954 20.992 87.514 23.354 87.951C25.716 88.388 26.961 88.265 27.073 87.659Z" fill="#EC0187"/>
<path d="M25.61 76.788C26.585 77.058 27.37 77.833 27.662 78.734C29.275 78.476 30.029 78.242 30.406 78.183C30.779 78.138 31.017 78.286 30.916 78.652L30.569 79.901C30.464 80.281 30.121 80.514 29.748 80.558C29.44 80.604 28.745 80.625 27.546 80.752L27.368 81.391L29.363 81.944C29.699 82.037 29.903 82.307 29.801 82.672L29.493 83.784C29.388 84.165 29.078 84.276 28.743 84.183C28.362 84.078 27.232 83.6 25.282 83.06C23.348 82.524 22.133 82.351 21.737 82.242C21.402 82.149 21.194 81.894 21.3 81.513L22.114 78.574C22.507 77.158 24.133 76.378 25.61 76.788ZM22.723 80.104L26.409 81.125C26.645 80.273 26.01 79.309 25.005 79.031C24.046 78.765 22.975 79.255 22.723 80.104Z" fill="#EC0187"/>
<path d="M25.095 69.628C25.323 69.005 25.824 69.155 26.087 69.402C26.413 69.707 29.542 72.838 29.912 73.159C29.985 73.236 30.063 73.298 30.141 73.36C31.078 73.652 31.684 73.79 31.936 73.882C32.263 74.002 32.444 74.287 32.314 74.643L31.912 75.742C31.782 76.098 31.464 76.184 31.138 76.064C30.885 75.972 30.328 75.7 29.424 75.319L29.125 75.31C28.634 75.316 24.218 75.703 23.773 75.725C23.412 75.744 22.939 75.52 23.162 74.912L23.547 73.858C23.678 73.502 24.038 73.297 24.414 73.283C24.774 73.264 27.941 74.221 28.121 73.731C28.294 73.256 25.263 71.928 25.001 71.681C24.723 71.427 24.579 71.038 24.71 70.682L25.095 69.628Z" fill="#EC0187"/>
<path d="M31.173 66.385C30.75 66.17 30.445 65.933 30.258 65.673C30.066 65.399 29.973 65.116 29.98 64.823C29.991 64.522 30.07 64.226 30.218 63.934C30.365 63.643 30.555 63.408 30.787 63.23C31.019 63.053 31.302 62.96 31.637 62.952C31.962 62.94 32.336 63.041 32.759 63.255C33.172 63.465 33.475 63.707 33.667 63.981C33.849 64.251 33.942 64.534 33.945 64.831C33.938 65.123 33.862 65.414 33.714 65.706C33.566 65.997 33.374 66.236 33.138 66.424C32.896 66.597 32.613 66.689 32.288 66.702C31.958 66.7 31.586 66.594 31.173 66.385Z" fill="#EC0187"/>
<path d="M34.531 55.743C35.812 53.824 37.732 53.567 40.137 55.173C42.542 56.779 43.041 58.651 41.759 60.57C40.478 62.489 38.558 62.746 36.153 61.14C33.748 59.534 33.249 57.662 34.531 55.743ZM41.142 60.157C41.493 59.632 40.687 58.675 38.689 57.342C36.691 56.008 35.499 55.63 35.148 56.156C34.806 56.668 35.612 57.624 37.61 58.958C39.608 60.292 40.799 60.67 41.142 60.157Z" fill="#EC0187"/>
<path d="M40.587 47.763C40.834 47.455 41.173 47.463 41.444 47.68C41.764 47.937 43.283 49.378 45.034 50.782C46.378 51.859 46.608 53.846 45.54 55.178C44.463 56.522 42.483 56.717 41.139 55.64C39.388 54.236 37.652 53.067 37.331 52.81C37.06 52.592 36.979 52.264 37.226 51.955L38.057 50.92C38.304 50.611 38.642 50.619 38.913 50.837C39.234 51.094 39.483 51.314 40.962 52.702C41.413 53.125 44.052 55.443 44.764 54.555C45.475 53.667 42.639 51.596 42.129 51.247C40.452 50.105 40.183 49.91 39.862 49.653C39.591 49.436 39.51 49.107 39.757 48.799L40.587 47.763Z" fill="#EC0187"/>
<path d="M47.312 44.73C48.048 45.424 48.38 46.476 48.218 47.409C49.765 47.934 50.54 48.079 50.902 48.202C51.252 48.337 51.394 48.579 51.133 48.855L50.244 49.798C49.973 50.085 49.561 50.131 49.211 49.996C48.917 49.893 48.293 49.587 47.173 49.139L46.718 49.622L48.224 51.042C48.477 51.281 48.531 51.615 48.271 51.891L47.48 52.73C47.209 53.017 46.883 52.971 46.63 52.733C46.343 52.462 45.566 51.512 44.094 50.124C42.634 48.747 41.64 48.027 41.341 47.745C41.088 47.507 41.022 47.185 41.294 46.897L43.386 44.678C44.394 43.609 46.196 43.679 47.312 44.73ZM43.211 46.315L45.993 48.939C46.6 48.295 46.488 47.147 45.729 46.431C45.005 45.748 43.829 45.682 43.211 46.315Z" fill="#EC0187"/>
<path d="M50.987 40.164C50.55 40.899 52.076 41.149 53.357 41.006C54.98 40.805 56.295 40.777 57.085 41.724C58.027 42.852 57.755 44.499 56.139 45.745C55.201 46.446 53.787 47.07 53.037 46.172C52.247 45.226 52.665 43.951 53.78 43.906C54.557 43.875 56.128 44.745 56.362 44.138C56.584 43.541 54.874 43.219 53.677 43.436C52.068 43.729 50.87 43.576 50.131 42.69C49.179 41.55 49.512 39.975 51.077 38.669C52.144 37.778 53.429 37.344 54.168 38.229C54.594 38.739 54.878 39.819 54.259 40.336C53.397 41.055 51.411 39.44 50.987 40.164Z" fill="#EC0187"/>
<path d="M58.996 32.839C60.281 31.947 61.688 34.722 60.779 35.352C59.896 35.965 58.941 34.089 58.24 34.576C58.24 34.576 59.052 36.051 59.953 37.349C61.107 39.011 61.943 39.912 62.169 40.236C62.367 40.522 62.351 40.86 62.04 41.076L61.092 41.734C60.767 41.959 60.458 41.847 60.26 41.561C60.035 41.236 59.471 40.147 58.317 38.485C57.416 37.187 56.331 35.901 56.331 35.901C55.617 36.396 57.04 37.948 56.17 38.552C55.262 39.182 53.141 36.903 54.439 36.002L58.996 32.839Z" fill="#EC0187"/>
<path d="M62.743 29.29C64.751 28.154 66.581 28.79 68.004 31.308C69.427 33.826 69.028 35.722 67.02 36.857C65.011 37.992 63.181 37.356 61.758 34.838C60.335 32.321 60.734 30.425 62.743 29.29ZM66.654 36.21C67.204 35.899 66.916 34.682 65.734 32.591C64.552 30.5 63.658 29.625 63.108 29.936C62.572 30.24 62.86 31.456 64.042 33.548C65.224 35.639 66.117 36.513 66.654 36.21Z" fill="#EC0187"/>
<path d="M72.841 27.581C73.263 28.5 73.177 29.6 72.677 30.404C73.914 31.471 74.579 31.896 74.867 32.146C75.142 32.403 75.182 32.68 74.837 32.838L73.659 33.379C73.3 33.543 72.901 33.431 72.627 33.175C72.393 32.969 71.929 32.451 71.059 31.616L70.456 31.893L71.32 33.774C71.465 34.09 71.39 34.42 71.045 34.579L69.997 35.06C69.638 35.225 69.353 35.06 69.208 34.744C69.043 34.385 68.679 33.213 67.836 31.374C66.998 29.55 66.347 28.51 66.176 28.137C66.031 27.821 66.091 27.497 66.45 27.332L69.222 26.06C70.558 25.447 72.202 26.188 72.841 27.581ZM68.445 27.512L70.041 30.988C70.845 30.619 71.172 29.512 70.737 28.564C70.321 27.66 69.256 27.157 68.445 27.512Z" fill="#EC0187"/>
<path d="M77.566 22.722C78.189 22.494 78.398 22.972 78.378 23.333C78.356 23.779 77.984 28.189 77.978 28.679C77.966 28.785 77.969 28.885 77.972 28.984C78.353 29.888 78.639 30.44 78.731 30.692C78.851 31.019 78.75 31.342 78.394 31.472L77.295 31.874C76.939 32.004 76.669 31.817 76.549 31.49C76.457 31.238 76.305 30.638 76.013 29.701L75.826 29.467C75.505 29.096 72.36 25.972 72.056 25.646C71.808 25.383 71.673 24.877 72.282 24.654L73.336 24.269C73.692 24.139 74.081 24.282 74.334 24.56C74.582 24.823 75.894 27.86 76.384 27.68C76.859 27.507 75.917 24.334 75.937 23.974C75.951 23.598 76.156 23.237 76.512 23.107L77.566 22.722Z" fill="#EC0187"/>
<path d="M83.473 23.317C83.365 22.855 83.35 22.469 83.429 22.159C83.515 21.835 83.672 21.582 83.899 21.399C84.137 21.213 84.415 21.083 84.733 21.008C85.051 20.933 85.353 20.928 85.638 20.99C85.923 21.053 86.177 21.21 86.398 21.461C86.617 21.702 86.78 22.053 86.889 22.515C86.995 22.966 87.005 23.353 86.918 23.677C86.829 23.99 86.672 24.243 86.447 24.437C86.22 24.62 85.947 24.749 85.629 24.824C85.311 24.898 85.004 24.905 84.709 24.845C84.421 24.772 84.168 24.615 83.949 24.374C83.738 24.121 83.579 23.768 83.473 23.317Z" fill="#EC0187"/>
<path d="M94.03 16.974C96.324 16.724 97.754 18.03 98.067 20.905C98.381 23.78 97.266 25.364 94.972 25.615C92.679 25.865 91.248 24.558 90.935 21.683C90.621 18.808 91.736 17.224 94.03 16.974ZM94.892 24.876C95.52 24.808 95.736 23.576 95.475 21.188C95.215 18.8 94.739 17.644 94.11 17.712C93.498 17.779 93.282 19.011 93.543 21.399C93.803 23.787 94.279 24.943 94.892 24.876Z" fill="#EC0187"/>
<path d="M103.883 16.488C104.277 16.478 104.489 16.742 104.498 17.089C104.508 17.5 104.385 19.59 104.44 21.833C104.482 23.555 103.11 25.012 101.404 25.053C99.682 25.095 98.257 23.707 98.215 21.985C98.16 19.742 97.935 17.66 97.925 17.25C97.917 16.902 98.116 16.628 98.511 16.619L99.838 16.586C100.233 16.577 100.445 16.84 100.453 17.188C100.463 17.599 100.456 17.931 100.347 19.957C100.315 20.574 100.242 24.086 101.38 24.058C102.517 24.03 102.274 20.526 102.211 19.911C102.004 17.893 101.98 17.562 101.97 17.151C101.962 16.803 102.16 16.53 102.555 16.52L103.883 16.488Z" fill="#EC0187"/>
<path d="M110.898 18.681C110.841 19.69 110.251 20.623 109.433 21.1C110.029 22.621 110.418 23.307 110.556 23.663C110.679 24.018 110.585 24.282 110.206 24.261L108.912 24.189C108.518 24.167 108.217 23.881 108.095 23.526C107.984 23.235 107.816 22.561 107.437 21.416L106.774 21.379L106.659 23.446C106.639 23.793 106.419 24.05 106.041 24.029L104.889 23.964C104.494 23.942 104.32 23.663 104.339 23.316C104.361 22.922 104.587 21.716 104.7 19.696C104.811 17.692 104.721 16.468 104.744 16.058C104.764 15.711 104.968 15.453 105.363 15.475L108.408 15.645C109.875 15.727 110.983 17.15 110.898 18.681ZM107.043 16.566L106.83 20.385C107.713 20.434 108.519 19.608 108.577 18.567C108.633 17.573 107.926 16.631 107.043 16.566Z" fill="#EC0187"/>
<path d="M117.643 16.653C116.8 16.792 117.592 18.12 118.525 19.008C119.724 20.12 120.592 21.109 120.377 22.323C120.12 23.77 118.684 24.622 116.691 24.188C115.551 23.922 114.162 23.242 114.367 22.09C114.582 20.877 115.827 20.375 116.58 21.199C117.104 21.774 117.449 23.536 118.064 23.324C118.664 23.11 117.81 21.594 116.872 20.818C115.612 19.775 114.958 18.76 115.16 17.624C115.419 16.162 116.838 15.402 118.845 15.759C120.215 16.002 121.374 16.705 121.172 17.841C121.056 18.495 120.413 19.408 119.619 19.267C118.514 19.071 118.471 16.511 117.643 16.653Z" fill="#EC0187"/>
<path d="M70.065 102.453L98.887 102.606M98.887 102.606C95.319 102.588 88.197 99.951 88.252 89.558M98.887 102.606C95.318 102.842 88.167 105.607 88.118 114.777" stroke="#91D7E1" stroke-width="2.22526" stroke-linejoin="round"/>
</g>
<defs>
<clipPath id="clip0_236_5">
<rect width="118" height="205" fill="white"/>
</clipPath>
</defs>
</svg>
