<?xml version="1.0" encoding="utf-8"?><svg xmlns="http://www.w3.org/2000/svg" xmlns:xlink="http://www.w3.org/1999/xlink"><symbol viewBox="0 0 10 11" id="arrow-up" xmlns="http://www.w3.org/2000/svg"><path fill-rule="evenodd" clip-rule="evenodd" d="M.406 6.238a.812.812 0 10-1.148 NaN NaNlNaN NaNa.812.812 0 11.148 0 NaN NaNlNaN NaN NaN NaNa.812.812 0 1-1.149 NaN NaNlNaN NaNvNaNa.812.812 0 11-1.624 NaN NaNvNaNlNaN NaNa.812.812 0 1-1.148 NaN NaNz"/></symbol><symbol viewBox="0 0 16 16" id="minus" xmlns="http://www.w3.org/2000/svg"><rect x="2" y="7" width="12" height="2" rx="1"/></symbol><symbol viewBox="0 0 16 16" id="plus" xmlns="http://www.w3.org/2000/svg"><path d="M2 8a1 1 0 0 1 1-1h10a1 1 0 1 1 0 2H3a1 1 0 0 1-1-1z"/><path d="M8 2a1 1 0 0 1 1 1v10a1 1 0 1 1-2 0V3a1 1 0 0 1 1-1z"/></symbol></svg>